<svg fill="none" height="256" width="575" xmlns="http://www.w3.org/2000/svg"><g fill="#00000018"><path clip-rule="evenodd" d="m8.375 47.875 8.562-4.625 8.563 4.625c.5.25 1.125.188 1.625-.125.437-.313.687-.938.562-1.5l-1.625-9.688L33 29.689c.437-.438.562-1 .375-1.563-.188-.5-.625-.938-1.188-1l-9.562-1.438-4.313-8.812c-.25-.5-.75-.875-1.375-.875-.562 0-1.062.375-1.312.875l-4.313 8.813-9.562 1.437c-.563.063-1 .5-1.188 1-.187.563-.062 1.125.375 1.563l6.938 6.875-1.688 9.687c-.062.563.188 1.188.625 1.5.5.313 1.063.375 1.563.125zm3.25-20.188c.625-.125 1.187-.5 1.5-1.125l3.812-7.875 3.875 7.875c.25.625.813 1 1.5 1.125l8.563 1.25-6.188 6.188c-.5.438-.687 1.125-.562 1.75l1.437 8.75-7.625-4.125a2.12 2.12 0 0 0-1.937 0l-7.625 4.125 1.437-8.75c.125-.625-.062-1.313-.562-1.75L3 28.937zM113 16c-3.375 0-6 2.688-6 6v.25c0 1 .75 1.75 1.75 1.75h8.437c1 0 1.813-.75 1.813-1.75V22c0-3.313-2.688-6-6-6zm0 2c2.187 0 4 1.813 4 4h-8c0-2.188 1.75-4 4-4z" fill-rule="evenodd"/><path clip-rule="evenodd" d="M100.687 22.313c-.375-.375-1.062-.375-1.437 0s-.375 1.062 0 1.437l5 4.938c-.813 1.062-1.25 2.437-1.25 3.812v.5h-5c-.563 0-1 .5-1 1 0 .563.437 1 1 1h5v1c0 1.938.5 3.688 1.375 5.188l-5.125 5.124c-.375.376-.375 1.063 0 1.438s1.062.375 1.437 0l4.938-4.938c1.812 2 4.437 3.188 7.375 3.188 2.875 0 5.5-1.188 7.312-3.188l4.938 4.938c.375.375 1.062.375 1.437 0s.375-1.063 0-1.438l-5.125-5.124c.875-1.5 1.438-3.25 1.438-5.188v-1h5c.5 0 1-.438 1-1 0-.5-.5-1-1-1h-5v-.5c0-1.375-.5-2.75-1.313-3.813l5-4.937c.375-.375.375-1.063 0-1.438s-1.062-.375-1.437 0l-4.938 4.938C119.25 26.5 117.875 26 116.5 26h-7c-1.438 0-2.813.5-3.875 1.25zM112 43.938c-4-.438-7-3.813-7-7.938v-3.5c0-2.438 2-4.5 4.5-4.5h7c2.437 0 4.5 2.063 4.5 4.5V36c0 4.125-3.063 7.5-7 7.938V32c0-.5-.5-1-1-1-.563 0-1 .5-1 1zM224.687 46.313l-8.875-8.813c2-2.313 3.125-5.25 3.125-8.5 0-7.125-5.875-13-13-13C198.75 16 193 21.875 193 29c0 7.188 5.812 13 12.937 13 3.188 0 6.125-1.125 8.438-3.125l8.812 8.875c.25.188.5.25.813.25.25 0 .5-.063.687-.25.375-.375.375-1.063 0-1.438zM206 40c-6.125 0-11-4.938-11-11s4.875-11 11-11c6.062 0 11 4.938 11 11 0 6.125-4.938 11-11 11z" fill-rule="evenodd"/><path d="M318 17c0-.5-.5-1-1-1-.563 0-1 .5-1 1v2h-2c-.563 0-1 .5-1 1 0 .563.437 1 1 1h2v2c0 .563.437 1 1 1 .5 0 1-.438 1-1v-2h2c.5 0 1-.438 1-1 0-.5-.5-1-1-1h-2zM293.937 36c.563 0 1-.438 1-1v-.5c0-3.563 2.938-6.5 6.5-6.5h.5c.563 0 1-.438 1-1 0-.5-.437-1-1-1h-.5c-4.687 0-8.5 3.813-8.5 8.5v.5c0 .563.5 1 1 1z"/><path clip-rule="evenodd" d="m307.062 22.125-.687.688C305 22.313 303.5 22 302 22c-7.188 0-13 5.875-13 13 0 7.188 5.812 13 13 13 7.125 0 13-5.813 13-13 0-1.5-.313-3-.813-4.375l.688-.688a1.928 1.928 0 0 0 0-2.812l-1.813-1.813 1.125-1.062c.375-.375.375-1.063 0-1.438s-1.062-.375-1.437 0l-1.063 1.125-1.812-1.812a1.928 1.928 0 0 0-2.813 0zm-1.375 2.563c.75.25 1.563.062 2.125-.5l.688-.688 5 5-.688.688a2.062 2.062 0 0 0-.5 2.125A10.17 10.17 0 0 1 313 35c0 6.125-4.938 11-11.063 11-6.062 0-11-4.875-11-11 0-6.063 4.938-11 11-11 1.313 0 2.625.25 3.75.688zM401 18c-8.875 0-16 5.875-16 13 0 3 1.187 5.75 3.25 7.938-.875 2.437-2.813 4.562-2.875 4.562-.438.438-.5 1.063-.313 1.625.25.563.813.875 1.438.875 3.812 0 6.812-1.563 8.687-2.875 1.813.563 3.75.875 5.813.875 8.812 0 15.937-5.813 15.937-13 0-7.125-7.125-13-15.937-13zm0 2c7.687 0 13.937 4.938 13.937 11S408.687 42 401 42c-1.813 0-3.563-.25-5.25-.75-.563-.188-1.25-.125-1.75.25-1.375 1-3.625 2.188-6.438 2.5.75-.938 1.875-2.563 2.563-4.375.312-.688.125-1.438-.375-2.063C387.937 35.626 387 33.376 387 31c0-6.063 6.25-11 14-11z" fill-rule="evenodd"/><path d="M507.562 28c0 .125 0 .25-.062.375 2.062 1.063 3.5 3.125 3.5 5.5 0 3.313-2.688 6-6 6.188-.563 0-1-.5-1-1 0-.563.437-1 1-1 2.062-.313 4-2.126 4-4.188 0-2.188-1.75-4-3.938-4.125.313-.5.5-1.063.5-1.75 0-1.813-1.562-3.313-3.437-3.313h-.313a4.76 4.76 0 0 0 .313-1.687c0-2.75-2.313-5-5.125-5-.313 0-.563.063-.813.125.5.688.813 1.5.813 2.375 0 2.313-1.938 4.188-4.313 4.188h-.875c-1.875 0-3.437 1.5-3.437 3.312 0 .625.187 1.25.562 1.75-2.25.125-3.937 1.938-3.937 4.125s1.75 4 4 4.125c.5 0 1 .5 1 1.063 0 .5-.5 1-1 1-3.375-.188-6-2.876-6-6.188 0-2.375 1.375-4.438 3.437-5.5-.062-.125-.062-.25-.062-.375 0-2.938 2.437-5.313 5.437-5.313h.875c1.25 0 2.313-1 2.313-2.187 0-.5-.25-.938-.438-1.188-.437-.562-.5-1.312-.25-2 .25-.625.875-1.062 1.563-1.187A5.597 5.597 0 0 1 497 16c3.937 0 7.125 3.188 7.125 7v.063c2 .812 3.437 2.687 3.437 4.937z"/><path d="M495.187 38H501c.375 0 .687.25.812.625.188.375.125.75-.125 1.063l-7 8a.99.99 0 0 1-.75.312c-.187 0-.437-.063-.625-.188-.437-.374-.437-1-.125-1.437L498.75 40H493c-.438 0-.75-.188-.938-.563-.187-.374-.125-.75.188-1.062l7-8c.312-.438.937-.438 1.375-.125.437.375.437 1 .125 1.438z"/><path clip-rule="evenodd" d="M57 97.5v-13c0-1.375-1.125-2.5-2.5-2.5h-3c-1.438 0-2.5 1.125-2.5 2.5v13c0 1.438 1.062 2.5 2.5 2.5h3c1.375 0 2.5-1.063 2.5-2.5zm-2 0c0 .313-.25.5-.5.5h-3c-.313 0-.5-.188-.5-.5v-13c0-.25.187-.5.5-.5h3c.25 0 .5.25.5.5z" fill-rule="evenodd"/><path d="M78.812 94.75c.188-.375.25-.875.25-1.313 0-1.437-.812-2.687-2-3.374.063-.25.125-.563.125-.876 0-1.374-.75-2.624-1.937-3.312C75.312 83.75 73.562 82 71.437 82h-3.5C63.125 82 59 86 59 87.063c0 .5.437 1 1 1 .38-.02.812-.444 1.39-1.011C62.613 85.848 64.495 84 67.936 84h3.5c1 0 1.875.875 1.875 1.875 0 .165-.034.26-.067.35-.03.08-.058.157-.058.275 0 .593.408.803.855 1.034.544.28 1.145.59 1.145 1.653 0 .444-.13.683-.248.9-.099.18-.19.345-.19.6 0 .563.438.876.813.938.875.188 1.5.938 1.5 1.813 0 .619-.227.916-.431 1.183-.167.219-.319.417-.319.754 0 .5.438.938.938 1 .937.063 1.75.875 1.75 1.813 0 1-.875 1.812-1.875 1.812h-8c-.563 0-.938.438-.938 1.062 0 .126 0 .313.125.438 1.063 2 1.625 4.125 1.625 4.75-.062.75-.625 1.75-1.937 1.75-1 0-1.188-.25-1.75-2-1.1-3.349-1.92-4.14-3.867-6.017a81.054 81.054 0 0 1-1.696-1.67C60.5 98.124 60.25 98 60 98c-.563 0-1 .438-1 1 0 .549.52 1.006 1.258 1.658 1.198 1.056 2.972 2.62 4.054 5.904l.041.118c.55 1.594 1.146 3.32 3.647 3.32 2.437 0 3.875-1.875 3.875-3.75 0-.875-.375-2.5-1.125-4.25h6.375C79.25 102 81 100.312 81 98.187c0-1.5-.875-2.812-2.188-3.437z"/><path clip-rule="evenodd" d="M149 84v15c0 2.812 2.187 5 5 5h3v4c0 2.25 1.75 4 4 4 2.187 0 4-1.75 4-4v-4h3c2.75 0 5-2.188 5-5V84c0-2.188-1.813-4-4-4h-16c-2.25 0-4 1.813-4 4zm22 15a3 3 0 0 1-3 3h-5v6c0 1.125-.938 2-2 2-1.125 0-2-.875-2-2v-6h-5c-1.688 0-3-1.312-3-3v-1h20zm-2-17c1.062 0 2 .938 2 2v12h-20V84c0-1.063.875-2 2-2h2v7c0 .563.437 1 1 1 .5 0 1-.438 1-1v-7h4v5c0 .563.437 1 1 1 .5 0 1-.438 1-1v-5zM262 110h-4v-8.125c4.75-.5 8.375-4.813 7.937-9.813L265 81.876c-.063-1.063-.938-1.875-1.938-1.875h-12.187c-1 0-1.875.813-1.938 1.875L248 92.063c-.438 5 3.187 9.312 8 9.812V110h-4c-.563 0-1 .5-1 1 0 .562.437 1 1 1h10c.5 0 1-.438 1-1 0-.5-.5-1-1-1zm-5.375-10c-1.938-.125-3.688-1-4.938-2.438s-1.875-3.374-1.687-5.312l.875-10.25h5.437l1.375 3.563-3.187 1.562c-.25.125-.438.438-.5.75-.063.313.062.625.25.875l4 4c.187.188.437.25.75.25.25 0 .5-.063.687-.25.375-.375.375-1.063 0-1.438l-3-3 2.75-1.374c.438-.25.625-.813.438-1.25L258.437 82H263l.937 10.25c.188 1.938-.437 3.875-1.687 5.313s-3 2.312-4.938 2.437z" fill-rule="evenodd"/><path d="M351.5 96.063c0-.876.625-1.563 1.5-1.563.812 0 1.5.688 1.5 1.563 0 .374-.188.75-.438 1.062-.312.25-.687.375-1.062.375-.875 0-1.563-.625-1.5-1.438z"/><path clip-rule="evenodd" d="M357.437 83.063c3.625-1.5 6.563-1.376 8.188.312 2.437 2.375 1.437 7.375-2.063 12.625 3.438 5.312 4.438 10.312 2 12.688-.812.874-2.062 1.312-3.625 1.312-1.312 0-2.812-.312-4.5-1-1.437-.562-2.937-1.375-4.437-2.375-1.563 1-3.063 1.813-4.5 2.375-1.688.688-3.188 1-4.5 1-1.563 0-2.813-.438-3.688-1.312-2.437-2.376-1.437-7.376 2-12.688-3.437-5.25-4.437-10.25-2-12.625 1.625-1.688 4.563-1.813 8.188-.313 1.437.563 2.937 1.376 4.5 2.376 1.5-1 3-1.813 4.437-2.376zm6.813 1.75c-1.125-1.063-3.25-1.063-6.063.062-.982.382-1.963.954-2.987 1.55l-.45.263a36.335 36.335 0 0 1 4.062 3.5c1.25 1.312 2.438 2.624 3.563 4.062 2.687-4.313 3.312-8.063 1.875-9.438zM344 84c-1 0-1.75.25-2.313.813-1.437 1.437-.812 5.124 1.938 9.437 2.125-2.875 4.687-5.375 7.562-7.563-1.125-.687-2.312-1.374-3.437-1.812-1.438-.563-2.688-.875-3.75-.875zm-2.313 23.25c1.063 1.062 3.25 1.062 6.063-.062 1.125-.438 2.312-1.126 3.375-1.813-1.438-1.063-2.75-2.25-4.063-3.5-1.25-1.313-2.437-2.625-3.562-4.063-2.625 4.313-3.25 8.063-1.813 9.438zm6.875-15.625A42.417 42.417 0 0 0 344.75 96a37.439 37.439 0 0 0 3.812 4.438c1.375 1.374 2.813 2.624 4.438 3.75 1.562-1.126 3.062-2.376 4.375-3.75 1.375-1.375 2.687-2.813 3.812-4.438-1.125-1.563-2.437-3-3.812-4.375S354.562 89 353 87.875c-1.625 1.125-3.063 2.375-4.438 3.75zm9.625 15.563c2.75 1.124 5 1.124 6.063.062 1.437-1.438.812-5.125-1.875-9.438-1.125 1.438-2.313 2.75-3.563 4.063-1.312 1.25-2.625 2.437-4.062 3.5 1.125.687 2.312 1.375 3.437 1.813z" fill-rule="evenodd"/><path d="M453 95c1.062 0 2-.875 2-2 1.062 0 2 .938 2 2 0 1.125-.938 2-2 2-1.125 0-2-.875-2-2z"/><path clip-rule="evenodd" d="M453 87.313c-.125-.563.187-1.063.687-1.25.563-.126 1.063.187 1.25.687l.063.313c.437 1.562 1.812 2.687 3.375 2.874l.687.126c.563.062.938.562.875 1.062-.062.563-.5.875-.937.875.625.875 1 1.875 1 3s-.375 2.188-1 3v2c0 .562-.5 1-1 1-.563 0-1-.438-1-1v-.375a5.416 5.416 0 0 1-2 .375c-2.813 0-5-2.188-5-5 0-2.563 1.937-4.688 4.437-4.938a5.776 5.776 0 0 1-1.312-2.437zM455 98a3 3 0 0 0 3-3c0-1.625-1.375-3-3-3a3 3 0 0 0-3 3c0 1.688 1.312 3 3 3z" fill-rule="evenodd"/><path d="M445 95c0 1.125-.938 2-2 2-1.125 0-2-.875-2-2 1.062 0 2-.875 2-2 1.062 0 2 .938 2 2z"/><path clip-rule="evenodd" d="M444.25 86.063c.5.187.812.687.687 1.25l-.125.312a5.776 5.776 0 0 1-1.312 2.438c2.5.25 4.5 2.374 4.5 4.937v4c0 .563-.5 1-1 1-.563 0-1-.438-1-1-.875.625-1.875 1-3 1-.75 0-1.438-.125-2-.375V100c0 .562-.5 1-1 1-.563 0-1-.438-1-1v-2c-.688-.813-1-1.875-1-3s.312-2.125.937-3c-.437 0-.875-.313-.937-.875-.063-.5.312-1 .875-1.063l.687-.124c1.563-.188 2.938-1.313 3.375-2.876l.063-.312c.187-.5.687-.813 1.25-.688zM443 92a3 3 0 0 0-3 3c0 1.688 1.312 3 3 3a3 3 0 0 0 3-3c0-1.625-1.375-3-3-3z" fill-rule="evenodd"/><path d="M453.062 103.125c.375-.437 1-.437 1.438-.125.437.375.437 1 .125 1.438-1.125 1.25-3 2.562-5.625 2.562-2.688 0-4.563-1.312-5.688-2.562-.312-.438-.312-1.063.125-1.438.438-.312 1.063-.312 1.438.125.812.937 2.125 1.875 4.125 1.875 1.937 0 3.25-.938 4.062-1.875z"/><path clip-rule="evenodd" d="M465 96c0 8.875-7.188 16-16 16-8.875 0-16-7.125-16-16 0-8.813 7.125-16 16-16 8.812 0 16 7.188 16 16zm-16-14c-7.75 0-14 6.313-14 14 0 7.75 6.25 14 14 14 7.687 0 14-6.25 14-14 0-7.688-6.313-14-14-14z" fill-rule="evenodd"/><path d="M538.625 81.563c-1-.938-2.375-1.563-3.875-1.563-3.188 0-5.75 2.625-5.75 5.813 0 1.124.312 2.187.875 3.062.312.5.937.625 1.375.313.437-.313.625-.938.312-1.376-.375-.562-.562-1.25-.562-2 0-2.124 1.625-3.812 3.75-3.812 1 0 1.875.438 2.562 1.063.375.374 1 .312 1.375-.063.375-.438.375-1.063-.062-1.438zM555.187 80c-1.5 0-2.875.625-3.875 1.563-.437.374-.437 1-.062 1.437.375.375 1 .438 1.375.063.687-.626 1.562-1.063 2.562-1.063A3.788 3.788 0 0 1 559 85.813c0 .75-.25 1.437-.625 2-.313.437-.125 1.062.312 1.374.438.313 1.063.188 1.375-.312.563-.875.938-1.938.938-3.063 0-3.187-2.625-5.812-5.813-5.812zM549.562 101.25 546 98.5V91c0-.5-.5-1-1.063-1-.5 0-1 .5-1 1v8c0 .313.188.625.438.813l4 2.999c.437.376 1.062.25 1.375-.187.375-.437.25-1.063-.188-1.375z"/><path clip-rule="evenodd" d="M531.25 110.312c-.375.376-.375 1.063 0 1.438s1.062.375 1.437 0l3.125-3.125C538.25 110.75 541.437 112 545 112c3.5 0 6.687-1.25 9.125-3.375l3.125 3.125c.375.375 1.062.375 1.437 0s.375-1.062 0-1.438l-3.125-3.124A13.896 13.896 0 0 0 559 98c0-7.688-6.313-14-14-14-7.75 0-14 6.313-14 14 0 3.562 1.25 6.75 3.375 9.188zM557 98c0 6.625-5.375 12-12.063 12-6.625 0-12-5.375-12-12s5.375-12 12-12C551.625 86 557 91.375 557 98z" fill-rule="evenodd"/><path d="M78.375 220c-1.688-5.75-7.063-10-13.375-10-6.375 0-11.75 4.25-13.438 10H49.5c1.75-6.875 8-12 15.5-12 7.437 0 13.687 5.125 15.437 12z"/><path d="M61.5 219c0 .875-.688 1.5-1.5 1.5s-1.5-.625-1.5-1.5c0-.5.25-.938.625-1.188l-2.5-.812c-.5-.188-.75-.75-.625-1.312.187-.5.75-.813 1.312-.626l6 2c.5.188.75.75.625 1.313-.187.5-.75.75-1.312.625l-1.188-.438c0 .063.016.141.032.219.015.078.03.157.03.219zM67.312 219c-.562.125-1.125-.125-1.312-.625-.125-.563.125-1.125.625-1.313l6-2a1.048 1.048 0 0 1 1.312.626c.125.562-.125 1.124-.625 1.312l-2.5.812c.438.25.688.688.688 1.188 0 .875-.688 1.5-1.5 1.5s-1.5-.625-1.5-1.5c0-.125 0-.312.062-.438z"/><path clip-rule="evenodd" d="M69 232h1c.5 0 1 .5 1 1 0 .562-.5 1-1 1h-1v1c0 .562-.5 1-1 1-.563 0-1-.438-1-1v-1h-2v1c0 .562-.5 1-1 1-.563 0-1-.438-1-1v-1h-1c-.563 0-1-.438-1-1 0-.5.437-1 1-1h1v-2h-1c-.563 0-1-.438-1-1 0-.5.437-1 1-1h1v-1c0-.5.437-1 1-1 .5 0 1 .5 1 1v1h2v-1c0-.5.437-1 1-1 .5 0 1 .5 1 1v1h1c.5 0 1 .5 1 1 0 .562-.5 1-1 1h-1zm-4 0h2v-2h-2z" fill-rule="evenodd"/><path d="M80.625 226.75c.437.375.437 1 .125 1.438l-6 7c-.375.437-1 .437-1.438.124-.437-.374-.437-1-.125-1.437l6-7c.375-.437 1-.437 1.438-.125zM76 228c0 .875-.688 1.5-1.5 1.5-.875 0-1.5-.625-1.5-1.5 0-.812.625-1.5 1.5-1.5.812 0 1.5.688 1.5 1.5zM78 234c0-.812.625-1.5 1.5-1.5.812 0 1.5.688 1.5 1.5 0 .875-.688 1.5-1.5 1.5-.875 0-1.5-.625-1.5-1.5zM58 226c.5 0 1 .5 1 1v4c0 .562-.5 1-1 1-.563 0-1-.438-1-1v-4c0-.5.437-1 1-1zM59.5 234.5c0 .875-.688 1.5-1.5 1.5-.875 0-1.5-.625-1.5-1.5 0-.812.625-1.5 1.5-1.5.812 0 1.5.688 1.5 1.5zM53 227.125l.75.187c.5.126.812.688.687 1.188-.125.562-.687.875-1.25.75-.5-.125-1.125-.25-1.625-.188-.25 0-.437.063-.5.126 0 0-.062.062-.062.187-.063.063 0 .125 0 .125l.062.062c.25.126.625.25 1.188.438h.062c.11.041.23.082.354.126.442.153.957.331 1.396.624.25.25.563.562.75.938.188.437.188.874.125 1.312-.125.75-.5 1.312-1.062 1.625a2.947 2.947 0 0 1-.938.375c0 .562-.5 1-1 1-.562 0-1-.438-1-1v-.188a6.02 6.02 0 0 1-.904-.206h-.002a5.765 5.765 0 0 0-.406-.106c-.5-.188-.75-.75-.625-1.312.187-.5.75-.813 1.312-.626.563.188 1.313.438 2 .438.313 0 .438 0 .5-.062.063 0 .125-.063.125-.25.063-.063.063-.126 0-.126v-.062s0-.062-.062-.125c-.25-.125-.625-.25-1.188-.437l-.125-.063-.047-.013c-.438-.125-1.095-.313-1.578-.674a1.761 1.761 0 0 1-.75-.876c-.187-.374-.25-.812-.187-1.312.125-.625.437-1.125.937-1.438.313-.25.688-.374 1-.437V227c0-.5.5-1 1-1 .563 0 1 .5 1 1z"/><g clip-rule="evenodd" fill-rule="evenodd"><path d="M45 226c0-2.188 1.75-4 4-4h32c2.187 0 4 1.812 4 4v10c0 2.25-1.813 4-4 4H49c-2.25 0-4-1.75-4-4zm2 10c0 1.125.875 2 2 2h32c1.062 0 2-.875 2-2v-10c0-1.062-.938-2-2-2H49c-1.125 0-2 .938-2 2zM173 210c2.187 0 4 1.812 4 4v20c0 2.25-1.813 4-4 4h-24c-2.25 0-4-1.75-4-4v-20c0-2.188 1.75-4 4-4zm-4 13v-11h-16v11zm-20-11c-1.125 0-2 .938-2 2v3h4v-5zm2 11v-4h-4v4zm-4 11c0 1.125.875 2 2 2h2v-5h-4zm6-9v11h16v-11zm20 11c1.062 0 2-.875 2-2v-3h-4v5zm-2-17v4h4v-4zm0-7v5h4v-3c0-1.062-.938-2-2-2zm-20 13h-4v4h4zm20 4h4v-4h-4zM267 226c0 5.562-4.5 10-10.063 10-5.5 0-10-4.438-10-10 0-5.5 4.5-10 10-10C262.5 216 267 220.5 267 226zm-4.563-5.812-2.375 3.312c.563.688.938 1.562.938 2.5 0 .073-.022.125-.039.168a.216.216 0 0 0-.024.082l3.875 1.312c.125-.5.188-1 .188-1.562 0-2.25-1-4.312-2.563-5.812zm-4.5 9.687v4.063a7.803 7.803 0 0 0 6.25-4.5l-3.875-1.25c-.5.812-1.375 1.437-2.375 1.687zm-2 0c-.937-.25-1.812-.875-2.312-1.687l-3.875 1.25c1.125 2.437 3.437 4.187 6.187 4.5zm-7-3.875c0 .562.063 1.062.188 1.562L253 226.25c0-.026-.011-.052-.023-.082-.018-.043-.04-.095-.04-.168 0-.938.375-1.812.938-2.5l-2.375-3.312c-1.563 1.5-2.563 3.562-2.563 5.812zm9.5-3.688 2.375-3.312a7.934 7.934 0 0 0-3.875-1 7.874 7.874 0 0 0-3.812 1l2.375 3.312a3.712 3.712 0 0 1 1.437-.312c.563 0 1.063.125 1.5.312zm-1.5 1.688c-1.062 0-2 .938-2 2 0 1.125.938 2 2 2 1.125 0 2.063-.875 2.063-2 0-1.062-.938-2-2.063-2z"/><path d="M273 226c0 2.438-.563 4.688-1.5 6.688a.529.529 0 0 0 0 .437l1.125 2.25a2.9 2.9 0 0 1 .375 1.437c0 1.75-1.5 3.188-3.25 3.188h-25.563a3.2 3.2 0 0 1-3.187-3.188c0-.5.062-1 .312-1.437l1.125-2.25a.529.529 0 0 0 0-.437c-.937-2-1.437-4.25-1.437-6.688 0-8.812 7.125-16 16-16 8.812 0 16 7.188 16 16zm-28.813 12h25.563c.687 0 1.25-.5 1.25-1.188a1.01 1.01 0 0 0-.188-.562L269.75 234c-.375-.688-.375-1.438-.063-2.125.813-1.813 1.313-3.75 1.313-5.875 0-7.688-6.313-14-14.063-14-7.687 0-14 6.312-14 14 0 2.125.5 4.062 1.313 5.875.312.687.312 1.437-.063 2.125l-1.062 2.25a1.01 1.01 0 0 0-.188.562c0 .688.563 1.188 1.25 1.188zM353 231c3.437 0 6-3.312 6-7s-2.563-7-6-7c-3.5 0-6 3.312-6 7s2.5 7 6 7zm4-7c0 2.938-2 5-4 5-2.063 0-4-2.062-4-5s1.937-5 4-5c2 0 4 2.062 4 5z"/><path d="M335 215.062v19.376c0 1.124.625 2.187 1.625 2.562 5.319 2.017 10.637.686 16.015-.66l.36-.09c4.937-1.25 9.937-2.5 14.937-1.188C369.375 235.5 371 234.5 371 233v-19.375c0-1.125-.688-2.187-1.688-2.563-5.342-2.026-10.684-.674-16.026.678l-.286.072c-5 1.25-10 2.5-15 1.188-1.438-.438-3 .562-3 2.062zm2.5-.187c1.125.375 2.312.563 3.5.625 0 2.25-1.813 4-4 4v-4.438h-.063c.032 0 .047-.015.063-.031.007-.006.013-.013.021-.018a.065.065 0 0 1 .041-.013c.125-.125.313-.125.438-.125zm-.5 19.563V231.5c2.187 0 4 1.812 4 4v.438a14.56 14.56 0 0 1-3.625-.813c-.188-.063-.375-.25-.375-.687zm6 1.062c0-3.312-2.688-6-6-6v-8a5.934 5.934 0 0 0 5.937-5.938c3.625-.062 7.125-.937 10.375-1.812.313-.062.563-.125.813-.188 3.125-.812 6.062-1.437 8.875-1.5v.438c0 3.312 2.625 6 6 6v8c-3.313 0-6 2.688-6 6-3.625.062-7.125.938-10.375 1.812-.313.063-.563.126-.813.188-3.125.812-6.062 1.438-8.812 1.5zm25.908-2.445a.067.067 0 0 1-.033.007.383.383 0 0 1-.438.063 16.434 16.434 0 0 0-3.437-.563v-.062c0-2.188 1.75-4 4-4v4.5c-.031 0-.047.016-.063.031l-.005.005-.01.01a.17.17 0 0 1-.014.009zm-.346-20.117c.188.062.438.25.438.687v2.875c-2.25 0-4-1.75-4-4v-.375c1.187.125 2.375.375 3.562.813z"/></g><path d="M466.625 223.25c.437.375.437 1 .062 1.438-.312.437-.937.437-1.375.062L463 222.688v9.874c-.625-.312-1.313-.5-2-.5v-11.124l-12-10.563-12 10.563v11.124c-.75 0-1.438.188-2 .5v-9.874l-2.375 2.062c-.438.375-1.063.375-1.375-.062-.375-.438-.375-1.063.062-1.438l17-14.938a.909.909 0 0 1 1.313 0z"/><path clip-rule="evenodd" d="M443.937 221c0-1.062.938-2 2-2H452c1.062 0 2 .938 2 2v6c0 1.125-.938 2-2 2h-6.063c-1.062 0-2-.875-2-2zm8.063 0h-6.063v6H452z" fill-rule="evenodd"/><path d="M446.625 236.688c.562-.376 1.125-.876 1.625-1.376.375-.374 1.062-.374 1.437 0 .5.5 1 1 1.625 1.376 1.063.687 2.375 1.312 3.625 1.312 1.313 0 2.625-.625 3.688-1.312.562-.376 1.125-.876 1.625-1.376.375-.374 1.062-.374 1.437 0 .5.5 1 1 1.625 1.376.813.562 1.75 1.062 2.75 1.25.5.124.938.5.938 1 0 .562-.563 1.124-1.125 1-1.438-.25-2.75-.938-3.688-1.563-.5-.375-.875-.687-1.25-1-.312.313-.687.625-1.187 1-1.188.75-2.875 1.625-4.813 1.625-1.875 0-3.562-.875-4.75-1.625-.5-.375-.875-.687-1.25-1-.312.313-.687.625-1.187 1-1.188.75-2.875 1.625-4.813 1.625-1.875 0-3.562-.875-4.75-1.625-.5-.375-.875-.687-1.25-1-.312.313-.687.625-1.187 1-.938.625-2.25 1.313-3.688 1.563-.562.124-1.062-.438-1.062-1 0-.5.375-.876.875-1 1-.188 1.937-.688 2.75-1.25.562-.376 1.125-.876 1.625-1.376.375-.374 1.062-.374 1.437 0 .5.5 1.063 1 1.625 1.376 1.063.687 2.375 1.312 3.625 1.312 1.313 0 2.625-.625 3.688-1.312z"/><path clip-rule="evenodd" d="m551.125 209.438-4.688 4.687-8.562 2.375a4.895 4.895 0 0 0-3.5 3.375l-5.188 17.187c-.187.75 0 1.626.563 2.188.562.562 1.437.75 2.187.562l17.188-5.187a4.897 4.897 0 0 0 3.375-3.5l2.375-8.563 4.687-4.687a4.035 4.035 0 0 0 0-5.687l-2.75-2.75a4.035 4.035 0 0 0-5.687 0zM554 220.625 548.375 215l4.187-4.125a1.927 1.927 0 0 1 2.813 0l2.75 2.75c.812.75.812 2.063 0 2.813zm-15.625-2.187 8.312-2.313 6.188 6.187-2.313 8.313c-.25 1-1 1.813-2 2.063l-15.5 4.687 6.875-6.875c.625.312 1.313.5 2.063.5 2.187 0 4-1.75 4-4 0-2.188-1.813-4-4-4-2.25 0-4 1.812-4 4 0 .75.187 1.438.5 2.062l-6.875 6.876 4.687-15.5c.25-1 1.063-1.75 2.063-2zM540 227c0-1.062.875-2 2-2 1.062 0 2 .938 2 2 0 1.125-.938 2-2 2-1.125 0-2-.875-2-2zM19.625 155.438c-.813.374-1.688.562-2.688.562a6.202 6.202 0 0 1-2.625-.562l-4.437 7.812a14.961 14.961 0 0 0 7.062 1.75c5.563 0 10.438-3 13-7.5.313-.438.938-.625 1.375-.312.5.25.688.874.375 1.312-2.937 5.125-8.437 8.5-14.75 8.5-2.875 0-5.687-.688-8.062-2l-6.063 10.5c-.25.5-.875.688-1.312.375-.5-.25-.688-.875-.375-1.313l6.062-10.624c-2-1.438-3.687-3.25-4.937-5.438-.313-.438-.125-1.062.375-1.312.437-.313 1.062-.126 1.375.312 1.062 1.875 2.437 3.438 4.187 4.688l4.5-7.938a5.993 5.993 0 0 1-1.75-4.25c0-3.312 2.688-6 6-6 3.375 0 6.063 2.688 6.063 6a5.993 5.993 0 0 1-1.75 4.25l3 5.312c.312.438.125 1.063-.375 1.313-.438.313-1.063.125-1.375-.375zM16.937 146c-2.187 0-4 1.812-4 4 0 2.25 1.813 4 4 4 2.25 0 4.063-1.75 4.063-4 0-2.188-1.813-4-4.063-4z" fill-rule="evenodd"/><path d="M26.5 167.5c-.25-.438-.063-1.062.375-1.312a.955.955 0 0 1 1.375.374l4.562 8c.313.438.125 1.063-.375 1.313-.437.313-1.062.125-1.312-.375zM111.5 168c0-.812.625-1.5 1.5-1.5.812 0 1.5.688 1.437 1.5 0 .875-.625 1.5-1.437 1.5a1.48 1.48 0 0 1-1.5-1.5zM113.937 163c0 .562-.437 1-.937 1-.563 0-1-.438-1-1v-9c0-.5.5-1 1-1 .437 0 .937.5.937 1z"/><path clip-rule="evenodd" d="m116 147.75 12.5 21.125a3.272 3.272 0 0 1 0 3.375c-.625 1.125-1.75 1.75-3 1.75h-25c-1.313 0-2.438-.625-3.063-1.75a3.272 3.272 0 0 1 0-3.375l12.5-21.125A3.52 3.52 0 0 1 113 146c1.25.062 2.375.688 3 1.75zm9.437 24.25c.563 0 1.063-.25 1.313-.75.312-.438.25-.938 0-1.375l-12.5-21.125c-.25-.438-.75-.688-1.25-.75-.563 0-1.063.312-1.313.75l-12.5 21.125c-.25.437-.312.937 0 1.375.25.5.75.75 1.313.75zM193 150c0-2.188 1.75-4 4-4h24c2.187 0 4 1.812 4 4v20c0 2.25-1.813 4-4 4h-24c-2.25 0-4-1.75-4-4zm2 0v4h28v-4c0-1.062-.938-2-2-2h-24c-1.125 0-2 .938-2 2zm0 6v7h13v-7zm15 0v7h13v-7zm-2 9h-13v5c0 1.125.875 2 2 2h11zm13 7c1.062 0 2-.875 2-2v-5h-13v7zM306.25 156.062 286 156c-.688 0-1.125-.75-1-1.5l2-7.5c.125-.562.5-1 1-1h30c.437 0 .812.438.937 1l1.438 5.438-.938-.876-1.062.938-1.25-4.5h-4.438l.375 1.875-.625-.5-1.312 1.125-.5-2.5H304v6h3.75c-.375.458-.694.916-1.013 1.374-.16.229-.32.459-.487.688zM302 148h-6.688l-1.25 6.062H302zm-8.75 0h-4.438l-1.687 6 4.937.062z" fill-rule="evenodd"/><path d="M287.437 158h2l1.313 12h13.812c.438.75.875 1.438 1.438 2.062L291 172v1c0 .562-.5 1-1 1-.563 0-1-.438-1-1v-1l-1.125-10H286c-.563 0-1-.438-1-1 0-.5.437-1 1-1h1.625z"/><path clip-rule="evenodd" d="M316.875 156.812c.75-.874 1.625-1.75 2.562-2.562 3.188 2.875 5.563 7.562 5.5 9.875 0 5.5-4.562 9.875-10 9.875-5.5 0-10-4.375-10-9.875 0-3.063 3.125-8.187 7.5-12.063 1.75 1.5 3.25 3.126 4.438 4.75zM315 172c.312 0 .562 0 .875-.062 1.937-.376 3.437-2.126 3.437-4.188 0-.5-.562-2-1.562-3.375l-1.625 1.875-1.5-2c-.375-.438-.813-.938-1.25-1.438-1.813 2.063-2.75 4.063-2.75 4.938 0 2.062 1.5 3.812 3.437 4.188.313.062.625.062.938.062zm6.312-4.25c0 .438 0 .875-.125 1.25 1.125-1.312 1.813-3 1.75-4.875 0-1.375-1.437-4.563-3.562-7.063-.313.313-.625.688-.938 1.063L316.812 160l-1.5-2a33.124 33.124 0 0 0-2.812-3.188c-3.5 3.5-5.563 7.376-5.563 9.313 0 1.875.688 3.563 1.813 4.937-.125-.437-.125-.874-.125-1.312 0-2 1.937-5.25 4.75-7.75 1.062 1 2.062 2.062 2.812 3.062.5-.562 1-1.124 1.625-1.624 2.063 1.812 3.5 4.812 3.5 6.312z" fill-rule="evenodd"/><path d="M409 152h-10c-.563 0-1 .5-1 1 0 .562.437 1 1 1h10c.5 0 1-.438 1-1 0-.5-.5-1-1-1zM409 158h-10c-.563 0-1 .5-1 1 0 .562.437 1 1 1h10c.5 0 1-.438 1-1 0-.5-.5-1-1-1z"/><path clip-rule="evenodd" d="M415 167v-20c0-1.625-1.375-3-3-3h-20c-2.813 0-5 2.25-5 5v23c0 2.25 1.75 4 4 4h23c.5 0 1-.438 1-1 0-.5-.5-1-1-1h-1v-4.125c1.125-.437 2-1.563 2-2.875zm-26-18a3 3 0 0 1 3-3h1v22h-2c-.75 0-1.438.25-2 .562zm2 25c-1.125 0-2-.875-2-2 0-1.062.875-2 2-2h20v4zm21-6h-17v-22h17c.5 0 1 .5 1 1v20c0 .562-.5 1-1 1z" fill-rule="evenodd"/><path d="M494.5 154c.812 0 1.5-.625 1.5-1.5 0-.812-.688-1.5-1.5-1.5-.875 0-1.5.688-1.5 1.5 0 .875.625 1.5 1.5 1.5zM499.5 151c-.875 0-1.5.688-1.5 1.5 0 .875.625 1.5 1.5 1.5.812 0 1.5-.625 1.5-1.5 0-.812-.688-1.5-1.5-1.5z"/><path clip-rule="evenodd" d="M494 162h6a3 3 0 0 0 3-3v-1c1.812-1.5 3-3.625 3-6 0-4.375-4.063-8-9-8-5 0-9 3.625-9 8 0 2.375 1.125 4.5 3 6v1c0 1.688 1.312 3 3 3zm3-16c4.062 0 7 2.938 7 6 0 1.688-.875 3.312-2.25 4.438L501 157v2c0 .562-.5 1-1 1h-6c-.563 0-1-.438-1-1v-2l-.813-.562c-1.375-1.126-2.187-2.75-2.187-4.438 0-3.062 2.875-6 7-6z" fill-rule="evenodd"/><path d="m499.375 169 11-5.062c.5-.25.75-.813.5-1.313s-.813-.75-1.313-.5L497 167.938l-12.625-5.813c-.5-.25-1.063 0-1.313.5s0 1.063.5 1.313l11 5.062-11 5.125c-.5.25-.75.813-.5 1.313s.813.75 1.313.5L497 170.125l12.562 5.813c.5.25 1.063 0 1.313-.5s0-1.063-.5-1.313z"/></g></svg>