<svg version="1.0" xmlns="http://www.w3.org/2000/svg" width="682.667" height="682.667" viewBox="0 0 512 512"><g fill="#003127"><path d="M112.5 20.5c-39.6 1.8-74.7 3.5-78 3.7-7.5.5-12 3.3-14.7 9.5-1.9 4.2-1.9 5.1-.3 39.6 1.7 38.3 2.2 41.6 7.6 46.1 1.6 1.4 4.4 2.9 6.2 3.4 1.9.5 23.9-.1 54.2-1.4 28.1-1.3 56-2.3 62.1-2.3l11.1-.1 19.9 14.1c21.8 15.5 23.9 16.4 28.2 11.3 2.2-2.5 2.3-3.1 1.7-13.3-.4-5.8-1.7-31.1-2.9-56.2-2.2-43.3-2.4-45.8-4.5-49.2-2.9-4.8-7.9-7.7-13.8-8.2-2.6-.2-37.2 1.1-76.8 3zm77.2 12.7c1 1.3 4.8 89.6 3.9 90.5-.2.3-6.2-3.6-13.1-8.5-9.5-6.9-13.9-9.4-17.8-10.3-4.2-.9-17.1-.6-65 1.6-33.4 1.5-60.2 2.3-60.7 1.9-1.1-1.1-4.2-67.6-3.2-68.5.4-.4 12.9-1.2 27.7-1.9 48.2-2.2 125-5.7 126.1-5.9.6 0 1.6.5 2.1 1.1z"/><path d="M160.1 62.6c-2.7 3.4-2.6 5.7.2 8.8C165 76.7 173 73.9 173 67c0-6.7-8.8-9.6-12.9-4.4zM115.5 63.5c-1.4 1.3-2.5 3.6-2.5 5 0 3.3 4.2 7.5 7.5 7.5s7.5-4.2 7.5-7.5-4.2-7.5-7.5-7.5c-1.4 0-3.7 1.1-5 2.5zM72.3 64c-4.5 1.8-5.7 8.6-2.2 12.1 4.7 4.7 14.1-.2 12.5-6.5-1.3-5.4-5.4-7.6-10.3-5.6zM242.9 76c-10.1.9-12.2 1.8-13.8 5.9-1.5 3.4-.4 6.2 3.3 8.6 2 1.3 4.1 1.4 14.9.4 29.5-2.5 62.2 3.9 90.4 17.6 43.1 21 76.5 59.2 91.3 104.4 7 21.4 8.9 35.8 10.6 80.3l.7 18.8h-2.4c-2 0-2.7-.9-4.1-4.8-2.4-6.4-7-11.8-13.2-14.9-7-3.7-19-3.9-25.3-.5-10.3 5.4-15.5 13.3-16.1 24.2-.7 11.9 4.7 115 6.3 120.6 2 6.9 8.7 14.4 15.6 17.3l5.1 2.3-.4 5c-.3 2.7-1.4 6.1-2.5 7.6-4.5 6.1-3.6 6-59.4 8.5-30.2 1.4-52.7 2-54.5 1.5-3.5-.9-7.8-5.1-9.3-9.1-.6-1.6-1.1-5.9-1.1-9.7v-7l3.8-1.9c4.6-2.4 9.9-8.1 12-13 3.9-9.2.7-22.7-7-29.7-5.5-5-10.2-6.7-17.8-6.7-10.7-.1-19.2 5.1-24.2 14.7-1.6 3.1-2.2 6-2.2 11.6-.1 6.5.3 8.2 2.9 12.9 3.2 5.9 8.3 10.5 13.1 12.1l3.1 1.1.6 9.2c1.1 15 7 24.4 18.4 29.4 4.7 2.1 7.1 2 67.8-.7 25.3-1.1 47.6-2.5 49.6-3 5.2-1.4 12.2-6.4 15.4-11 3.8-5.5 5.4-10.6 5.5-17.2V455l4.9-2.4c8.3-4.3 13.7-12.7 14.8-23.1l.6-5.4 4.1-.6c31.7-5 53.5-33.7 48.8-64.2-2.6-16.9-14.3-32.8-29.9-40.7L456 315v-4.3c0-12.9-2.3-54-3.6-64.9C440 142.3 346.7 66.8 242.9 76zM416 307.5c1.6 1.5 3.3 3.9 3.9 5.4.9 2.4 5.1 93.5 5.1 111.7 0 6.7-.4 8.6-2.1 10.8-7.6 9.6-22.5 5.9-24.3-6.2-1-6.6-4.9-112.9-4.2-115.5.9-3.9 5.4-8.6 8.9-9.5 4.4-1.2 9.4.1 12.7 3.3zm39.5 24.1c15.8 7.4 25.7 26 22.8 42.9-1.6 9.3-5.4 16.7-11.7 23.1-6.2 6.1-14 10.2-21.3 11.1l-4.9.5-1.7-38.8c-1-21.4-1.7-39.7-1.7-40.8 0-1.7.6-1.8 6.3-1.4 3.9.3 8.5 1.6 12.2 3.4zM277 418.9c3 2.1 5.3 8.4 4.5 12.2-1.4 6.2-9.5 10.2-15.6 7.6-7-2.9-9.5-9.3-6.2-15.7 3.4-6.6 11.2-8.4 17.3-4.1zM117.9 136.7c-16.6 17.5-32.4 43.2-40.7 66.3-11.7 32.3-13.8 57.6-9.7 120.7l.5 8.3-4.2 2.1c-6.7 3.4-19 16.3-22.6 23.9-15.6 31.8 2.1 70.3 36.4 79 4.2 1.1 9.4 2 11.6 2 3.7 0 3.8.1 3.8 3.7 0 8.4 7.9 19.1 17 23.2 8.2 3.7 20.6 2.4 28.2-3 4.3-3.1 8.6-9.5 10.3-15.4 1.4-4.7 1.3-10.9-.9-65l-2.5-59.9-3.2-6.4c-11.8-24.1-47.6-19-53.4 7.5-.5 2.6-1.2 3.3-3 3.3-2.2 0-2.4-.5-2.9-7.3-1.6-20.2-2.4-54.1-1.5-65.2 3.2-38.8 17.7-73.1 43.8-103.2 5.8-6.7 7.1-8.8 7.1-11.6 0-4.3-2.6-6.7-7.1-6.7-2.7 0-4.3.8-7 3.7zm6.1 182.1c6.1 4.6 5.9 3 8.5 65.9 2.3 54.8 2.3 58 .7 61.3-2.1 4.2-7.5 8-11.4 8-4.4 0-9.5-2.8-11.7-6.4-1.7-2.7-2-6.5-3-31.1-.7-15.4-1.8-41.5-2.6-58l-1.5-29.9 2.2-4.5c4-7.8 12.3-10.1 18.8-5.3zm-34.9 28.9c0 2.7.8 20.8 1.8 40.3 1 19.5 1.4 35.9 1.1 36.3-1.1 1.3-12.8-1.1-18.8-3.8-6.7-3.1-15.1-11.4-18.5-18.5-7.4-15.4-4.8-34.4 6.4-46.5 6.7-7.2 16.7-12.3 24.7-12.4 3.2-.1 3.2 0 3.3 4.6z"/><path d="M255.4 172.9c-13.5.6-14.2.7-17.8 3.5-5.4 4-6.6 7.8-6.6 19.5v10l-3.2 1.7c-1.8.9-5.8 3.4-8.9 5.4l-5.7 3.9-8.3-4.4c-9.1-4.8-14.3-5.6-20.2-3.1-4.7 2-6.8 4.8-14 18.6-7.8 14.9-8.6 18.1-6 24.1 2.4 5.4 3.4 6.2 13.6 11.9l8.2 4.5.1 7.5c0 4.1.4 8.9.8 10.6.7 3 .4 3.3-7.2 8.3-10.9 7.1-12.4 9-13 15.4-.5 6.2-.7 5.9 10 23 6.6 10.6 8.7 13.1 12.1 14.8 6.3 3.3 11.7 2.3 21.3-3.9l7.9-5.1 3 2c1.6 1.1 5.8 3.3 9.1 4.9 6.9 3.2 7.4 4.3 7.4 15.2 0 7 1.6 11.3 5.9 15.3 3.2 3 3.4 3 15.9 3.3 22.5.6 29.1-1 33.5-8.6 1.5-2.6 1.9-5.1 1.8-13.7l-.1-10.6 3.1-1.7c1.7-.9 5.8-3.4 9.1-5.6l5.9-3.9 9 4.3c7.9 3.7 9.6 4.2 14.3 3.8 8.1-.7 10.2-2.8 18.9-19.1 6.4-12.1 7.7-15.2 7.7-19.1 0-8.3-2.9-11.8-14.8-18.1l-7.5-4-.4-11.1-.3-11.1 8.2-5.4c9.5-6.2 12.2-10 12.2-16.9 0-4.2-1-6.3-8.8-18.8-4.8-7.7-9.9-14.8-11.4-15.8s-5.2-2-8.2-2.2c-5.2-.3-5.9-.1-14.3 5.2-4.9 3.1-9.2 5.6-9.6 5.6-.5 0-3.4-1.6-6.6-3.5-3.2-1.9-7.2-3.9-9-4.5l-3.2-1.1-.6-10.6c-.6-8.2-1.2-11.3-2.8-14-4.1-6.5-8.1-7.4-30.5-6.4zm17.6 23.7c0 8.7 1.4 14 4.8 17.7.9 1.1 5.3 3.7 9.7 5.8 4.4 2.1 10 5 12.4 6.4 7 4 12.1 3 23.6-4.5 4.4-2.9 6.9-4 7.6-3.3 1.3 1.3 13.9 21.6 13.9 22.4 0 .3-2.7 2.1-6 3.8-14.2 7.6-15.2 9.7-14.5 28.7.7 19.4 1 19.9 15 27.3 4.4 2.4 8.2 4.4 8.3 4.6.7.6-12 23.5-12.9 23.5-.5 0-4.6-1.8-9.1-4.1-10.3-5.2-15-5.4-21.6-1-2.6 1.6-7.7 4.8-11.4 7.1-3.7 2.2-8 5.7-9.5 7.7-2.7 3.5-2.8 4.1-2.6 14.4l.1 10.8-2.6.5c-4 .8-23 1.2-23.6.5-.4-.3-1-5.3-1.4-11.1-1.1-13-2.7-15.8-11.6-19.8-3.4-1.6-8.8-4.4-12-6.4-8.8-5.3-12.9-5-23.5 1.4-4.5 2.7-8.8 5-9.4 5-1 0-14.7-20.8-14.7-22.4 0-.3 3.4-2.4 7.5-4.7 9.5-5.2 13-9.5 12.9-15.8-.5-26.7-.6-27.6-5.2-32.4-1.5-1.6-6.2-4.7-10.4-7-4.3-2.2-7.8-4.5-7.8-4.9 0-.4 2.7-6 6.1-12.3l6-11.4 9.2 4.5c8 4.1 9.7 4.6 13.9 4.2 3.4-.4 6.2-1.5 9.1-3.7 2.3-1.7 6.9-4.7 10.3-6.6 10.9-6.3 12.4-9.1 12.4-23.5v-9.9l12.8-.3c7-.2 13-.2 13.5 0 .4.2.7 4.1.7 8.8z"/><path d="M250 231.9c-7.9 2.5-11.7 4.7-17.1 9.8-16.1 15-19.7 39.6-8.6 58.5 5.6 9.6 17.4 18.2 28.6 20.8 7.3 1.7 21.1.8 28.1-1.9 12.3-4.7 23-16.6 27.2-30.4 5.6-18.6-2-39.7-18.2-50.6-11.7-7.8-27.5-10.2-40-6.2zm27.8 16.6c10.4 5.6 15.3 13.8 16 26.3.4 7.7.3 8.7-2.8 14.8-5.7 11.6-16.7 18-29.8 17.2-11.4-.6-20.4-6.7-26-17.3-2.3-4.3-2.7-6.2-2.7-13.5 0-9.7 1.9-14.6 8.4-21.3 6.8-7.3 13.2-9.8 23.6-9.4 6.6.3 9 .8 13.3 3.2z"/></g></svg>