<svg version="1.0" xmlns="http://www.w3.org/2000/svg" width="682.667" height="682.667" viewBox="0 0 512 512"><g fill="#003127"><path d="M166.6 1.5C160.7 3.6 155.8 8 152.8 14l-2.8 5.4V95l-2.2-.5c-1.3-.3-17.1-3-35.3-6-32.3-5.3-33.1-5.4-36.5-3.7-4.6 2.2-5.9 6.1-5.9 17.9l-.1 9.2-17.5.3c-22.2.4-21.8.2-22.3 14.7l-.4 9.9-10.9.4-10.9.3-3.7 3.8L.5 145v359l3.8 3.7 3.7 3.8h496l3.7-3.8 3.8-3.7V145l-3.8-3.7-3.7-3.8-10.9-.3-10.9-.4-.4-9.9c-.5-15.1 1.2-14.3-30.8-14.7l-25.9-.3-.3-46.2c-.3-42-.5-46.6-2.1-50.2-2.5-5.5-7.3-10.3-13.2-13.1-4.7-2.3-6-2.4-25.2-2.4-19 0-20.4.1-22.3 2-1.2 1.2-2 3.3-2 5.5s.8 4.3 2 5.5c1.9 1.9 3.3 2 21.5 2H403l3.2 2.9 3.3 2.9.3 53.9c.2 29.6 0 55.2-.3 56.9-.3 1.8-1.7 4.4-3.2 5.8l-2.6 2.6h-22.9c-31.4 0-32.9.8-33.8 17.2l-.5 8.9-8.2-11c-4.6-6.1-9.5-11.8-11-12.8-2.5-1.7-8-1.8-80.1-2.3l-77.4-.5-2.4-2.8-2.4-2.8v-56c0-36.5.4-56.7 1-58 2.7-5 1-4.9 88-4.9 79.7 0 81 0 83-2 1.2-1.2 2-3.3 2-5.5s-.8-4.3-2-5.5c-2-2-3.3-2-84.2-2-67.4.1-83 .3-86.2 1.5zm-49.3 103c15 2.5 28.4 4.8 30 5.1l2.7.6v12c0 6.6.5 13.9 1.2 16.2 1.6 5.5 10.1 14 15.4 15.5 2.5.7 17.9 1.1 42.7 1.1H248v139c0 110.5-.3 139-1.2 139-.7 0-37.2-5.9-81-13.2L86 406.6l-.2-110.9-.3-110.9-2.4-1.9c-3-2.4-7.2-2.4-10.2 0l-2.4 1.9v115.6c0 114.2 0 115.6 2 117.5 1.6 1.7 9.7 3.3 46 9.5l44 7.4-58.7.1-58.8.1V127h24.8l.4 14.4c.3 12.5.6 14.7 2.2 16.5 2.6 2.9 8.6 2.9 11.2 0 1.8-1.9 1.9-4.2 2.2-30 .3-27.2.4-27.9 2.3-27.9 1.1 0 14.3 2 29.2 4.5zM467 281v154H264V155h55.6l11.7 15.8c6.4 8.7 12.7 16.8 13.9 17.9 4 3.7 9.9 3.4 13.9-.6l2.9-2.9v-30.1l22.8-.3 22.9-.3 4.9-3c6.2-3.9 11-11.5 12-19.1l.6-5.4H467v154zM30 313.5v161.6l2.5 2.4 2.4 2.5H248v17H15V152h15v161.5zm467 11V497H264v-17h52.9c50.2 0 53-.1 55.2-1.9 3.2-2.6 3.2-8.6 0-11.2-2.2-1.8-5-1.9-55.2-1.9H264v-15h203v15h-33.4c-32.2 0-33.4.1-36 2.1-3.6 2.8-3.6 8 0 10.8 2.6 2 3.7 2.1 41.1 2.1h38.4l2.4-2.5 2.5-2.4V152h15v172.5zm-249 133v7.5H45v-15h203v7.5z"/><path d="M284.3 213c-4.4 1.8-5.7 8.6-2.3 12 1.9 1.9 3.3 2 49.4 2h47.5l2-2.6c3.6-4.6 2.3-9.4-3-11.3-3.9-1.3-90.3-1.4-93.6-.1zM282 245c-2.5 2.5-2.6 7.1-.1 10.1l1.9 2.4 76.4.3c53.2.2 77.1-.1 78.9-.8 2.5-1.1 4.9-4.7 4.9-7.4 0-.7-.9-2.5-2.1-4l-2-2.6h-78c-76.6 0-77.9 0-79.9 2zM281.6 276.2c-3.6 5.1-.8 11.1 5.6 12.3 1.8.3 36.8.5 77.6.3l74.4-.3 2.4-2.8c2.9-3.4 3-5.6.3-9.1l-2-2.6H283.1l-1.5 2.2zM284.3 305c-4.4 1.8-5.7 8.6-2.3 12 2 2 3.3 2 79.9 2h78l2-2.6c1.2-1.5 2.1-3.3 2.1-4 0-2.6-2.3-6.2-4.7-7.3-2.9-1.4-151.6-1.4-155-.1zM282.7 337.1c-3.4 2.6-3.7 7.9-.7 10.9 2 2 3.3 2 79.5 2h77.6l2.6-2.6c2-2 2.4-3.1 1.9-5.7-1.3-6.6 4.1-6.2-81-6.5-77.1-.2-77.3-.2-79.9 1.9zM282.6 368.1c-3.6 2.8-3.6 8 0 10.8 2.6 2 3.7 2.1 43.9 2.1 38.8 0 41.4-.1 43.6-1.9 1.7-1.3 2.3-2.9 2.3-5.6 0-2.7-.6-4.3-2.3-5.6-2.2-1.8-4.8-1.9-43.6-1.9-40.2 0-41.3.1-43.9 2.1zM194.6 50.1c-3.3 2.6-3.6 7.9-.6 10.9 1.9 1.9 3.3 2 32.4 2 27.5 0 30.6-.2 32.4-1.8 3.8-3.1 3-10.1-1.3-12-1.8-.8-11.5-1.2-31.4-1.2-27.7 0-28.9.1-31.5 2.1zM194 80c-3 3-2.7 8.3.6 10.9C197.2 93 198 93 263 93s65.8 0 68.4-2.1c2-1.6 2.6-2.9 2.6-5.9 0-7.4 3.7-7-71.2-7-65.5 0-66.8 0-68.8 2z"/></g></svg>