<svg version="1.0" xmlns="http://www.w3.org/2000/svg" width="208" height="208" viewBox="0 0 156 156"><g fill="#003127"><path d="M67.7 8.6c-.4.4-.7 3.5-.7 6.9v6.1l-4.7 1.2c-2.7.7-7.6 2.7-11.1 4.4l-6.3 3.1-4.2-4.1C38.3 23.9 36 22 35.4 22 34.2 22 22 34.2 22 35.5c0 .5 1.9 2.8 4.1 5.2l4.2 4.2-3.6 7.3c-2 4-3.9 9-4.2 11l-.7 3.7-6.7.3-6.6.3v21l6.6.3 6.5.3 1.2 4.7c.7 2.6 2.7 7.5 4.4 11l3.1 6.3-4.1 4.2c-2.3 2.4-4.2 4.7-4.2 5.3 0 1.2 12.2 13.4 13.5 13.4.5 0 2.8-1.9 5.2-4.1l4.2-4.2 7.3 3.6c4 2 9 3.9 11 4.2l3.7.7.3 6.7.3 6.6h21l.3-6.6.3-6.5 4.7-1.2c2.6-.7 7.5-2.7 11-4.4l6.3-3.1 4.2 4.1c2.4 2.3 4.7 4.2 5.3 4.2 1.2 0 13.4-12.2 13.4-13.5 0-.5-1.9-2.8-4.1-5.2l-4.2-4.2 3.6-7.3c2-4 3.9-9 4.2-11l.7-3.7 6.7-.3 6.6-.3v-21l-6.6-.3-6.5-.3-1.2-4.7c-.7-2.6-2.7-7.5-4.4-11l-3.1-6.3 4.1-4.2c2.3-2.4 4.2-4.7 4.2-5.3 0-1.2-12.2-13.4-13.5-13.4-.5 0-2.8 1.9-5.2 4.1l-4.2 4.2-7.3-3.6c-4-2-9-3.9-11-4.2l-3.7-.7-.3-6.7-.3-6.6-10.1-.3c-5.5-.1-10.3 0-10.7.4zM84 17.9c0 3.3.4 6.3 1 6.6.5.3 3.6 1.3 6.7 2.1 3.2.8 8.6 3.1 12.1 4.9 3.4 1.9 6.8 3.5 7.5 3.5.7 0 3.1-1.8 5.2-4l3.9-4 4.3 4.2 4.3 4.2-4 4.1c-2.2 2.2-4 4.6-4 5.3 0 .6 1.6 4 3.5 7.4 1.8 3.5 4.1 8.9 4.9 12.1.8 3.1 1.8 6.2 2.1 6.7.3.6 3.3 1 6.6 1h5.9v12h-5.9c-3.3 0-6.3.4-6.6 1-.3.5-1.3 3.6-2.1 6.7-.8 3.2-3.1 8.6-4.9 12.1-1.9 3.4-3.5 6.8-3.5 7.4 0 .7 1.8 3.1 4 5.3l4 4.1-4.3 4.2-4.3 4.2-3.9-4c-2.1-2.2-4.5-4-5.2-4-.7 0-4.1 1.6-7.5 3.5-3.5 1.8-8.9 4.1-12.1 4.9-3.1.8-6.2 1.8-6.7 2.1-.6.3-1 3.3-1 6.6v5.9H72v-5.9c0-3.3-.4-6.3-1-6.6-.5-.3-3.6-1.3-6.7-2.1-3.2-.8-8.6-3.1-12.1-4.9-3.4-1.9-6.8-3.5-7.5-3.5-.7 0-3.1 1.8-5.2 4l-3.9 4-4.3-4.2-4.3-4.2 4-4.1c2.2-2.2 4-4.6 4-5.3 0-.6-1.6-4-3.5-7.4-1.8-3.5-4.1-8.9-4.9-12.1-.8-3.1-1.8-6.2-2.1-6.7-.3-.6-3.3-1-6.6-1H12V72h5.9c3.3 0 6.3-.4 6.6-1 .3-.5 1.3-3.6 2.1-6.7.8-3.2 3.1-8.6 4.9-12.1 1.9-3.4 3.5-6.8 3.5-7.4 0-.7-1.8-3.1-4-5.3l-4-4.1 4.3-4.2 4.3-4.2 3.9 4c2.1 2.2 4.5 4 5.2 4 .7 0 4.1-1.6 7.5-3.5 3.5-1.8 8.9-4.1 12.1-4.9 3.1-.8 6.2-1.8 6.7-2.1.6-.3 1-3.3 1-6.6V12h12v5.9z"/><path d="M66.3 39.4c-10.4 3.4-20.4 12.3-25.1 22.4-2.4 5-2.7 6.9-2.7 16.2 0 9.9.2 11 3.2 17.1 4 8 12 15.9 20 19.7 5.2 2.4 7 2.7 16.3 2.7 9.9 0 11-.2 17.1-3.2 8-4 15.9-12 19.7-20 2.4-5.2 2.7-7 2.7-16.3 0-9.9-.2-11-3.2-17.1-4-8.1-12.1-16-20-19.7-7-3.2-21-4.1-28-1.8zm22.3 4.3c6.7 2.2 11.1 5.2 16.2 10.7 16 17.4 10.1 45.9-11.7 56.2-17.5 8.3-39.3.4-47.7-17.5-9.5-20 2.4-44.7 24.1-50.1 5.3-1.4 14-1 19.1.7z"/><path d="M80.1 63.7c-.5 1-2.5 7.8-4.6 15.2-2.6 9.5-3.3 13.7-2.6 14.4.8.8 1.4.8 2.2 0 1.5-1.5 9-28.4 8.4-30.1-.6-1.7-2.3-1.5-3.4.5zM58.3 71.8c-3.4 2.6-6.2 5.4-6.2 6.2 0 2 12.7 11.3 14.5 10.6 2.4-.9 1.6-2.2-3.6-6.2-2.7-2.1-5-4.1-5-4.4 0-.3 2.3-2.3 5-4.4 4.9-3.7 5.9-5.9 2.9-6.3-.8-.1-4.2 1.9-7.6 4.5zM88.7 67.7c-1.3 1.2-.7 2.1 4.3 5.9 2.8 2.1 5 4.1 5 4.4 0 .3-2.2 2.3-5 4.4-5.3 4-6 5.3-3.5 6.2 1.9.8 14.4-8.5 14.4-10.6 0-1.4-11.9-11-13.7-11-.5 0-1.2.3-1.5.7z"/></g></svg>