<svg version="1.0" xmlns="http://www.w3.org/2000/svg" width="682.667" height="682.667" viewBox="0 0 512 512"><g fill="#003127"><path d="M60.5 33.1c-2.7.6-8.6 2.8-13.1 4.9C29 46.9 16 67.3 16 87.2c0 2.8.7 4.6 2.5 6.3l2.4 2.5h54.2l2.4-2.5C79.1 92 80 89.9 80 88s-.9-4-2.5-5.5C75.1 80 75.1 80 54 80c-17.1 0-21-.3-21-1.4 0-.7 1.6-4.5 3.5-8.3 4.3-8.6 10.3-14.4 19.3-18.6l6.7-3.2h51.1l7.6 3.7c13 6.5 21.2 18.2 22.5 32.4.5 5.2 1.2 7.4 2.9 9.1 2.3 2.3 2.7 2.3 23.9 2.3H192v32h-21.5c-21.2 0-21.6 0-23.9 2.3-1.7 1.7-2.4 3.9-2.9 9.1-1.3 14.2-9.5 25.9-22.5 32.4l-7.6 3.7H62.5l-6.7-3.2c-9-4.2-15-10-19.3-18.6-1.9-3.8-3.5-7.6-3.5-8.3 0-1.2 6.4-1.4 37-1.4h37.1l2.4-2.5 2.5-2.4V84.9l-2.5-2.4c-3.2-3.3-7.8-3.3-11 0-2.5 2.4-2.5 2.4-2.5 24V128H20.9l-2.4 2.5c-2.8 2.7-3.2 6.5-1.4 16.1 3.5 19.4 18.6 36.1 38.9 43 4.8 1.7 8.7 1.9 32 1.9s27.2-.2 32-1.9c19.5-6.6 33.9-21.9 38.2-40.4l1.3-5.2H192v5c0 4.5 1.7 8.5 16 37l16 32v22.2l-5.7 6.2c-11.1 11.8-19.6 27.5-23.5 43.2-3.1 12.7-3.1 32.4 0 44.9 2.8 10.9 10.2 26.8 16.6 35.2 26.6 35.1 74 47.7 114.5 30.4 20.3-8.6 38-25.5 48.1-45.8 4.5-9.1 8.9-24.6 9.2-32.6.2-4.3-.1-5.2-2.5-7.3-3.5-3-6.9-3-10.1-.1-2 1.7-2.8 3.8-3.7 9.5-.6 4.1-2.2 10.6-3.5 14.4-2.4 7.1-8.6 19.2-10.4 20.3-.7.4-1-16.2-1-46.7v-47.3l2.1 3c3.2 4.8 8.6 15.6 10 20.3 2.2 7.6 8.1 10.2 13.4 6 2.5-2 2.7-2.5 2.2-7.4-.6-5.8-7.3-21-12.7-28.9-1.7-2.5-5.8-7.5-9.1-10.9l-5.9-6.4v-10.4c0-10 .1-10.6 2.6-12.9 10.9-10.1 21.4-33.7 21.4-48.2 0-6.2-6.8-10.5-11.9-7.6-2.8 1.6-3.2 2.7-5.4 14.6-2.1 11.3-6.5 19.8-15.3 29.3l-7.4 8v162.9l-3.3 2.5c-4.5 3.5-16.8 9-24.7 11.2-10 2.8-31 2.6-41.4-.4-22.3-6.4-40.6-21.9-50.6-42.6-4.8-10.1-7-18.4-7.7-29.7-1-15.6 3.2-32.8 11.4-46.2l3.8-6.2.5 36c.3 19.8.7 36.1.8 36.2.1.1 1.6 1 3.3 1.9 3.6 1.8 7 1.3 9.9-1.6 1.9-1.9 2-3.6 2-62.5V214l-16-32-16-32V92.9l2.5-2.4c4.8-4.9 12.4-2 18 6.9l3 4.9.5 23c.6 26.6.3 25.9 10.9 27 11.3 1.2 19.7 6.8 25.2 16.9l3.4 6.3.5 22.3c.5 22 .5 22.4 2.9 24.3 3.2 2.6 7.7 2.4 10.6-.6 2.5-2.4 2.5-2.5 2.5-22.7 0-22.1-.8-27.6-5.6-36.9-1.4-2.9-4.6-7.4-7.1-10-4.9-5.3-5.2-7.4-.6-4.2 8 5.6 18.6 5.6 26.6.1 2.7-1.9 2.7-1.9 5.5 0 7.8 5.5 18.5 5.5 26.3.1 2.5-1.7 2.7-1.7 8.4 1.2 10 5 18.9 3.6 27-4.6 6.8-6.8 7.5-9.5 7.5-30.9V96h25.2l2.6-2.9c1.5-1.6 4.6-5.2 7-8 3.1-3.6 6.5-6.1 12-8.8 7.2-3.6 8.1-3.8 17.2-3.8s10 .2 17.2 3.7c9.1 4.5 14.7 10.3 19.1 19.6 2.9 6.1 3.2 7.6 3.2 16.2s-.3 10.2-3.2 16.2c-4.4 9.3-10 15.1-19.1 19.6-7.2 3.5-8.1 3.7-17.2 3.7s-10-.2-17.2-3.8c-5.5-2.7-8.9-5.2-12-8.8-9.2-10.8-9.6-11.2-13.1-10.5-7.9 1.5-8.8 8.6-2.2 17.4 6.9 9.2 16.1 15.6 28.5 19.8 7.6 2.6 24.3 2.6 32 0 24.3-8.2 40-29.2 40-53.6 0-32.1-28-58.1-59.9-55.7-14.2 1.1-26.5 6.9-36.6 17.3l-6.2 6.4H376v-5.6c0-8.7-1.8-13.3-7.5-18.9-8.1-8.2-17-9.6-27-4.6-5.7 2.9-5.9 2.9-8.4 1.2-7.8-5.4-18.5-5.4-26.3.1-2.8 1.9-2.8 1.9-5.5 0-7.9-5.5-18.6-5.5-26.4-.1-2.5 1.7-2.7 1.7-8.4-1.2-10.2-5.1-20.3-3.3-27.8 5.1-4.7 5.2-6.7 10.3-6.7 16.9V77l-4.1-2.1c-8.6-4.4-18.8-3.5-26.1 2.2l-3.7 2.9h-38.6l-1.3-5.3c-2-8.7-7.6-18.8-14.1-25.4-6.7-6.9-12.2-10.5-22-14.2-6.3-2.4-7.6-2.5-31.6-2.7-13.7-.2-27.2.2-30 .7zm201 33.4 2.5 2.4v62.2l-2.5 2.4c-1.5 1.6-3.6 2.5-5.5 2.5s-4-.9-5.5-2.5l-2.5-2.4V68.9l2.5-2.4c1.5-1.6 3.6-2.5 5.5-2.5s4 .9 5.5 2.5zm32 0 2.5 2.4v62.2l-2.5 2.4c-1.5 1.6-3.6 2.5-5.5 2.5s-4-.9-5.5-2.5l-2.5-2.4V68.9l2.5-2.4c1.5-1.6 3.6-2.5 5.5-2.5s4 .9 5.5 2.5zm32 0 2.5 2.4v62.2l-2.5 2.4c-1.5 1.6-3.6 2.5-5.5 2.5s-4-.9-5.5-2.5l-2.5-2.4V68.9l2.5-2.4c1.5-1.6 3.6-2.5 5.5-2.5s4 .9 5.5 2.5zm32 0 2.5 2.4v62.2l-2.5 2.4c-1.5 1.6-3.6 2.5-5.5 2.5s-4-.9-5.5-2.5l-2.5-2.4V68.9l2.5-2.4c1.5-1.6 3.6-2.5 5.5-2.5s4 .9 5.5 2.5z"/><path d="M432 89.3c-4.9 1.6-13.3 10.2-14.8 15.3-2.8 9.4-.8 16.9 6.3 23.9 5.1 5.2 10.2 7.5 16.5 7.5 12.3 0 24-11.6 24-23.9 0-4.2-3.8-8.1-8-8.1-1.9 0-4 .9-5.5 2.5-1.6 1.5-2.5 3.6-2.5 5.5 0 4.1-3.9 8-8 8s-8-3.9-8-8 3.9-8 8-8c1.9 0 4-.9 5.5-2.5 5.3-5.2 1.4-13.6-6.2-13.4-2.1.1-5.4.6-7.3 1.2zM154.3 185.3C135.1 204.5 133 207 133 210c0 2.9 1.5 4.8 11.5 15l11.5 11.6-4.4 9c-2.5 4.9-5.8 12.8-7.3 17.6l-2.8 8.8h-16.3c-15.9 0-16.3.1-18.7 2.5l-2.5 2.4v70.2l2.5 2.4c2.4 2.4 2.8 2.5 18.7 2.5h16.3l2.8 8.8c1.5 4.8 4.8 12.7 7.2 17.7l4.5 9-9.2 9.2-9.2 9.3-1.6-5.8c-5.4-19.6-26.6-29.5-44.5-20.7-11.2 5.4-17.8 16-17.9 28.5 0 9.4 2.6 15.9 9.2 22.3 14.8 14.5 38.7 11.9 49.5-5.4l3.1-5 14.5 14.5 14.6 14.6-2.4 4.5-2.4 4.5-3.1-1.9c-1.7-1.1-5.1-2.9-7.4-4.2-4.2-2.1-4.5-2.1-7.5-.5-10.9 5.6-18.3 10.5-19.4 12.6-.7 1.4-1.3 5.5-1.3 9.2v6.8H89v-7.4c0-4.1-.3-8.2-.6-9.1-.4-.9-3-2.8-5.8-4.2-2.8-1.4-7.1-3.9-9.5-5.6-5.7-3.9-8.3-3.8-15.9.6l-6.2 3.6-4.1-7.2c-2.3-4-5.8-9.9-7.7-13.2-1.9-3.3-3.7-6.3-3.9-6.7-.2-.3 2.2-2.1 5.3-3.8 9.1-5.3 9.1-5.3 9-18.8-.1-6.4-.6-12.4-1.1-13.3-.6-1-3.8-3.3-7.3-5.4-3.4-2-6.1-3.9-5.9-4.3.2-.4 2-3.4 3.9-6.7 1.9-3.3 5.4-9.2 7.7-13.2l4.1-7.2 6.1 3.6c3.3 2 7.3 3.6 8.9 3.6 1.6 0 5.4-1.7 9-4.1 3.4-2.3 6.9-4.2 7.7-4.2.7 0 2.5-1.1 3.8-2.5 2.4-2.3 2.5-2.9 2.5-16s-.1-13.7-2.5-16c-3.3-3.3-7-3.2-10.6.4-2.8 2.8-2.9 3.3-2.9 12v9.1l-3.7 1.9-3.8 1.9-8.6-4.6c-12.4-6.7-11.6-7.3-27.7 20.7-7.3 12.5-13.2 23.5-13.2 24.4 0 3.8 2.6 6.6 9.6 10.6l7.4 4.2v9.8l-7.4 4.2c-7 4-9.6 6.8-9.6 10.6 0 .9 5.9 11.9 13.2 24.4 16.1 28 15.3 27.4 27.7 20.7l8.6-4.6 3.8 1.9L73 472v9.1c0 8.7.1 9.2 2.9 12l2.9 2.9h53.3l2.4-2.5c2.3-2.2 2.5-3.2 2.5-11.7v-9.3l4.2-2.3 4.1-2.2 6.7 3.9c11.9 7.1 14.4 6.6 20.5-4.4l3.7-6.5 3.4 3c6.2 5.4 8.1 4.6 21.3-8.5l11.6-11.4 9 4.4c5 2.4 12.9 5.7 17.7 7.2l8.8 2.8v16.3c0 22.4-1.4 21.2 24 21.2 18.9 0 19.1 0 21.5-2.5 3.3-3.2 3.3-7.8 0-11-2.3-2.4-2.9-2.5-16-2.5H264v-14.9c0-18.6-.2-18.8-13.4-22.6-10.8-3.1-20.9-7.3-29.9-12.6-10.4-5.9-11-5.7-23.8 6.8l-11 10.7-16.6-16.7-16.7-16.6 10.7-11c12.5-12.8 12.7-13.4 6.8-23.8-5.3-9-9.5-19.1-12.6-29.9-3.8-13.2-4-13.4-22.6-13.4H120v-48h14.9c18.6 0 18.8-.2 22.6-13.4 3.1-10.8 7.3-20.9 12.6-29.9 5.9-10.4 5.7-11-6.8-23.8l-10.7-11 17.2-17.2c16-16.1 17.2-17.6 17.2-21 0-4.9-2.8-7.7-7.7-7.7-3.6 0-4.9 1.1-25 21.3zm-40.5 209.4c12.5 9.2 7.7 27.7-7.5 29-16.6 1.4-23.2-21.1-8.7-29.5 4.8-2.8 12.1-2.6 16.2.5zM391.7 165.2c-2.4 1.9-3.6 5.9-2.5 8.8.5 1.4 8.4 10 17.5 19.2l16.7 16.7-10.7 11c-12.5 12.8-12.7 13.4-6.8 23.8 5.3 9 9.5 19.1 12.6 29.9 3.8 13.2 4 13.4 22.6 13.4H456v48h-14.9c-18.6 0-18.8.2-22.6 13.4-3.1 10.8-7.3 20.9-12.6 29.9-5.9 10.4-5.7 11 6.8 23.8l10.7 11-16.7 16.6-16.6 16.7-11-10.7c-12.8-12.5-13.4-12.7-23.8-6.8-9 5.3-19.1 9.5-29.9 12.6-13.7 3.9-13.4 3.2-13.4 28.1 0 20.4 0 20.5 2.5 22.9 3.2 3.3 7.8 3.3 11 0 2.4-2.4 2.5-2.8 2.5-18.7v-16.3l8.8-2.8c4.8-1.6 12.7-4.8 17.7-7.2l8.9-4.5 11.7 11.5c10.2 10.1 12 11.5 15 11.5 3.1 0 5.5-2.2 28.1-24.8s24.8-25 24.8-28.1c0-3-1.4-4.8-11.5-15L420 387.4l4.5-8.9c2.4-5 5.6-12.9 7.2-17.7l2.8-8.8h16.3c15.9 0 16.3-.1 18.7-2.5l2.5-2.4v-70.2l-2.5-2.4c-2.4-2.4-2.8-2.5-18.7-2.5h-16.3l-2.8-8.8c-1.6-4.8-4.8-12.7-7.2-17.7l-4.5-8.9 11.5-11.7c10.1-10.2 11.5-12 11.5-15s-2-5.3-21.3-24.6c-19.6-19.7-21.5-21.3-24.8-21.3-1.9 0-4.3.6-5.2 1.2z"/></g></svg>