<svg version="1.0" xmlns="http://www.w3.org/2000/svg" width="133.333" height="133.333" viewBox="0 0 100 100"><g fill="#003127"><path d="M12 42.9v34.8l7.9.7c8.5.7 21.1 3.7 26.6 6.3 3.3 1.6 3.7 1.6 7 0 5.5-2.6 18.1-5.6 26.6-6.3l7.9-.7V8h-4.2C77 8 67.2 9.9 58.2 12.9L50 15.6l-8.3-2.7C32.8 9.9 23 8 16.3 8H12v34.9zm21.5-28.3c3.3.9 7.9 2.2 10.3 3.1l4.2 1.6v61.6L42.6 79c-5.8-2-13-3.5-21.3-4.5l-5.3-.7V11.9l5.8.6c3.1.4 8.4 1.3 11.7 2.1zM84 42.9v30.9l-5.2.7c-8.4 1-15.6 2.5-21.4 4.5L52 80.9V19.3l4.3-1.6c7.6-2.8 18.3-5.2 25.5-5.6L84 12v30.9z"/><path d="M4 51.8v33.9l9.4.6c10.5.7 22.2 2.9 30.9 5.8 5.6 1.9 5.8 1.9 11.5 0 8.6-2.9 20.3-5.1 30.8-5.8l9.4-.6V51.8C96 18.7 96 18 94 18s-2 .7-2 31.9v31.9l-7.2.7c-10.4.9-22.6 3.2-29.2 5.5-5.5 1.9-5.7 1.9-11.2 0-6.6-2.3-18.8-4.6-29.1-5.5L8 81.8V49.9C8 18.7 8 18 6 18s-2 .7-2 33.8z"/></g></svg>