<svg width="853" height="853" viewBox="0 0 853 853" fill="none" xmlns="http://www.w3.org/2000/svg">
<rect width="853" height="853" fill="white"/>
<g clip-path="url(#clip0_27_340)">
<path d="M109.3 80.6738H81.6738V108.3H109.3V80.6738Z" fill="#01002D"/>
<path d="M136.926 80.6738H109.3V108.3H136.926V80.6738Z" fill="#01002D"/>
<path d="M164.552 80.6738H136.926V108.3H164.552V80.6738Z" fill="#01002D"/>
<path d="M192.178 80.6738H164.552V108.3H192.178V80.6738Z" fill="#01002D"/>
<path d="M219.804 80.6738H192.178V108.3H219.804V80.6738Z" fill="#01002D"/>
<path d="M247.431 80.6738H219.804V108.3H247.431V80.6738Z" fill="#01002D"/>
<path d="M275.057 80.6738H247.43V108.3H275.057V80.6738Z" fill="#01002D"/>
<path d="M357.935 80.6738H330.309V108.3H357.935V80.6738Z" fill="#01002D"/>
<path d="M385.561 80.6738H357.935V108.3H385.561V80.6738Z" fill="#01002D"/>
<path d="M440.813 80.6738H413.187V108.3H440.813V80.6738Z" fill="#01002D"/>
<path d="M496.065 80.6738H468.439V108.3H496.065V80.6738Z" fill="#01002D"/>
<path d="M523.691 80.6738H496.065V108.3H523.691V80.6738Z" fill="#01002D"/>
<path d="M606.569 80.6738H578.943V108.3H606.569V80.6738Z" fill="#01002D"/>
<path d="M634.196 80.6738H606.57V108.3H634.196V80.6738Z" fill="#01002D"/>
<path d="M661.822 80.6738H634.196V108.3H661.822V80.6738Z" fill="#01002D"/>
<path d="M689.448 80.6738H661.822V108.3H689.448V80.6738Z" fill="#01002D"/>
<path d="M717.074 80.6738H689.448V108.3H717.074V80.6738Z" fill="#01002D"/>
<path d="M744.7 80.6738H717.074V108.3H744.7V80.6738Z" fill="#01002D"/>
<path d="M772.326 80.6738H744.7V108.3H772.326V80.6738Z" fill="#01002D"/>
<path d="M109.3 108.3H81.6738V135.926H109.3V108.3Z" fill="#01002D"/>
<path d="M275.057 108.3H247.43V135.926H275.057V108.3Z" fill="#01002D"/>
<path d="M330.309 108.3H302.683V135.926H330.309V108.3Z" fill="#01002D"/>
<path d="M357.935 108.3H330.309V135.926H357.935V108.3Z" fill="#01002D"/>
<path d="M440.813 108.3H413.187V135.926H440.813V108.3Z" fill="#01002D"/>
<path d="M468.439 108.3H440.813V135.926H468.439V108.3Z" fill="#01002D"/>
<path d="M496.065 108.3H468.439V135.926H496.065V108.3Z" fill="#01002D"/>
<path d="M606.569 108.3H578.943V135.926H606.569V108.3Z" fill="#01002D"/>
<path d="M772.326 108.3H744.7V135.926H772.326V108.3Z" fill="#01002D"/>
<path d="M109.3 135.926H81.6738V163.552H109.3V135.926Z" fill="#01002D"/>
<path d="M164.552 135.926H136.926V163.552H164.552V135.926Z" fill="#01002D"/>
<path d="M192.178 135.926H164.552V163.552H192.178V135.926Z" fill="#01002D"/>
<path d="M219.804 135.926H192.178V163.552H219.804V135.926Z" fill="#01002D"/>
<path d="M275.057 135.926H247.43V163.552H275.057V135.926Z" fill="#01002D"/>
<path d="M357.935 135.926H330.309V163.552H357.935V135.926Z" fill="#01002D"/>
<path d="M413.187 135.926H385.561V163.552H413.187V135.926Z" fill="#01002D"/>
<path d="M468.439 135.926H440.813V163.552H468.439V135.926Z" fill="#01002D"/>
<path d="M551.317 135.926H523.691V163.552H551.317V135.926Z" fill="#01002D"/>
<path d="M606.569 135.926H578.943V163.552H606.569V135.926Z" fill="#01002D"/>
<path d="M661.822 135.926H634.196V163.552H661.822V135.926Z" fill="#01002D"/>
<path d="M689.448 135.926H661.822V163.552H689.448V135.926Z" fill="#01002D"/>
<path d="M717.074 135.926H689.448V163.552H717.074V135.926Z" fill="#01002D"/>
<path d="M772.326 135.926H744.7V163.552H772.326V135.926Z" fill="#01002D"/>
<path d="M109.3 163.552H81.6738V191.178H109.3V163.552Z" fill="#01002D"/>
<path d="M164.552 163.552H136.926V191.178H164.552V163.552Z" fill="#01002D"/>
<path d="M192.178 163.552H164.552V191.178H192.178V163.552Z" fill="#01002D"/>
<path d="M219.804 163.552H192.178V191.178H219.804V163.552Z" fill="#01002D"/>
<path d="M275.057 163.552H247.43V191.178H275.057V163.552Z" fill="#01002D"/>
<path d="M330.309 163.552H302.683V191.178H330.309V163.552Z" fill="#01002D"/>
<path d="M357.935 163.552H330.309V191.178H357.935V163.552Z" fill="#01002D"/>
<path d="M440.813 163.552H413.187V191.178H440.813V163.552Z" fill="#01002D"/>
<path d="M468.439 163.552H440.813V191.178H468.439V163.552Z" fill="#01002D"/>
<path d="M523.691 163.552H496.065V191.178H523.691V163.552Z" fill="#01002D"/>
<path d="M606.569 163.552H578.943V191.178H606.569V163.552Z" fill="#01002D"/>
<path d="M661.822 163.552H634.196V191.178H661.822V163.552Z" fill="#01002D"/>
<path d="M689.448 163.552H661.822V191.178H689.448V163.552Z" fill="#01002D"/>
<path d="M717.074 163.552H689.448V191.178H717.074V163.552Z" fill="#01002D"/>
<path d="M772.326 163.552H744.7V191.178H772.326V163.552Z" fill="#01002D"/>
<path d="M109.3 191.178H81.6738V218.804H109.3V191.178Z" fill="#01002D"/>
<path d="M164.552 191.178H136.926V218.804H164.552V191.178Z" fill="#01002D"/>
<path d="M192.178 191.178H164.552V218.804H192.178V191.178Z" fill="#01002D"/>
<path d="M219.804 191.178H192.178V218.804H219.804V191.178Z" fill="#01002D"/>
<path d="M275.057 191.178H247.43V218.804H275.057V191.178Z" fill="#01002D"/>
<path d="M496.065 191.178H468.439V218.804H496.065V191.178Z" fill="#01002D"/>
<path d="M606.569 191.178H578.943V218.804H606.569V191.178Z" fill="#01002D"/>
<path d="M661.822 191.178H634.196V218.804H661.822V191.178Z" fill="#01002D"/>
<path d="M689.448 191.178H661.822V218.804H689.448V191.178Z" fill="#01002D"/>
<path d="M717.074 191.178H689.448V218.804H717.074V191.178Z" fill="#01002D"/>
<path d="M772.326 191.178H744.7V218.804H772.326V191.178Z" fill="#01002D"/>
<path d="M109.3 218.804H81.6738V246.431H109.3V218.804Z" fill="#01002D"/>
<path d="M275.057 218.804H247.43V246.431H275.057V218.804Z" fill="#01002D"/>
<path d="M330.309 218.804H302.683V246.431H330.309V218.804Z" fill="#01002D"/>
<path d="M385.561 218.804H357.935V246.431H385.561V218.804Z" fill="#01002D"/>
<path d="M468.439 218.804H440.813V246.431H468.439V218.804Z" fill="#01002D"/>
<path d="M523.691 218.804H496.065V246.431H523.691V218.804Z" fill="#01002D"/>
<path d="M606.569 218.804H578.943V246.431H606.569V218.804Z" fill="#01002D"/>
<path d="M772.326 218.804H744.7V246.431H772.326V218.804Z" fill="#01002D"/>
<path d="M109.3 246.43H81.6738V274.057H109.3V246.43Z" fill="#01002D"/>
<path d="M136.926 246.43H109.3V274.057H136.926V246.43Z" fill="#01002D"/>
<path d="M164.552 246.43H136.926V274.057H164.552V246.43Z" fill="#01002D"/>
<path d="M192.178 246.43H164.552V274.057H192.178V246.43Z" fill="#01002D"/>
<path d="M219.804 246.43H192.178V274.057H219.804V246.43Z" fill="#01002D"/>
<path d="M247.431 246.43H219.804V274.057H247.431V246.43Z" fill="#01002D"/>
<path d="M275.057 246.43H247.43V274.057H275.057V246.43Z" fill="#01002D"/>
<path d="M330.309 246.43H302.683V274.057H330.309V246.43Z" fill="#01002D"/>
<path d="M385.561 246.43H357.935V274.057H385.561V246.43Z" fill="#01002D"/>
<path d="M440.813 246.43H413.187V274.057H440.813V246.43Z" fill="#01002D"/>
<path d="M496.065 246.43H468.439V274.057H496.065V246.43Z" fill="#01002D"/>
<path d="M551.317 246.43H523.691V274.057H551.317V246.43Z" fill="#01002D"/>
<path d="M606.569 246.43H578.943V274.057H606.569V246.43Z" fill="#01002D"/>
<path d="M634.196 246.43H606.57V274.057H634.196V246.43Z" fill="#01002D"/>
<path d="M661.822 246.43H634.196V274.057H661.822V246.43Z" fill="#01002D"/>
<path d="M689.448 246.43H661.822V274.057H689.448V246.43Z" fill="#01002D"/>
<path d="M717.074 246.43H689.448V274.057H717.074V246.43Z" fill="#01002D"/>
<path d="M744.7 246.43H717.074V274.057H744.7V246.43Z" fill="#01002D"/>
<path d="M772.326 246.43H744.7V274.057H772.326V246.43Z" fill="#01002D"/>
<path d="M413.187 274.057H385.561V301.683H413.187V274.057Z" fill="#01002D"/>
<path d="M468.439 274.057H440.813V301.683H468.439V274.057Z" fill="#01002D"/>
<path d="M551.317 274.057H523.691V301.683H551.317V274.057Z" fill="#01002D"/>
<path d="M109.3 301.683H81.6738V329.309H109.3V301.683Z" fill="#01002D"/>
<path d="M136.926 301.683H109.3V329.309H136.926V301.683Z" fill="#01002D"/>
<path d="M164.552 301.683H136.926V329.309H164.552V301.683Z" fill="#01002D"/>
<path d="M192.178 301.683H164.552V329.309H192.178V301.683Z" fill="#01002D"/>
<path d="M219.804 301.683H192.178V329.309H219.804V301.683Z" fill="#01002D"/>
<path d="M275.057 301.683H247.43V329.309H275.057V301.683Z" fill="#01002D"/>
<path d="M302.683 301.683H275.057V329.309H302.683V301.683Z" fill="#01002D"/>
<path d="M330.309 301.683H302.683V329.309H330.309V301.683Z" fill="#01002D"/>
<path d="M357.935 301.683H330.309V329.309H357.935V301.683Z" fill="#01002D"/>
<path d="M385.561 301.683H357.935V329.309H385.561V301.683Z" fill="#01002D"/>
<path d="M468.439 301.683H440.813V329.309H468.439V301.683Z" fill="#01002D"/>
<path d="M496.065 301.683H468.439V329.309H496.065V301.683Z" fill="#01002D"/>
<path d="M523.691 301.683H496.065V329.309H523.691V301.683Z" fill="#01002D"/>
<path d="M551.317 301.683H523.691V329.309H551.317V301.683Z" fill="#01002D"/>
<path d="M578.943 301.683H551.317V329.309H578.943V301.683Z" fill="#01002D"/>
<path d="M634.196 301.683H606.57V329.309H634.196V301.683Z" fill="#01002D"/>
<path d="M689.448 301.683H661.822V329.309H689.448V301.683Z" fill="#01002D"/>
<path d="M744.7 301.683H717.074V329.309H744.7V301.683Z" fill="#01002D"/>
<path d="M136.926 329.309H109.3V356.935H136.926V329.309Z" fill="#01002D"/>
<path d="M164.552 329.309H136.926V356.935H164.552V329.309Z" fill="#01002D"/>
<path d="M219.804 329.309H192.178V356.935H219.804V329.309Z" fill="#01002D"/>
<path d="M302.683 329.309H275.057V356.935H302.683V329.309Z" fill="#01002D"/>
<path d="M330.309 329.309H302.683V356.935H330.309V329.309Z" fill="#01002D"/>
<path d="M357.935 329.309H330.309V356.935H357.935V329.309Z" fill="#01002D"/>
<path d="M440.813 329.309H413.187V356.935H440.813V329.309Z" fill="#01002D"/>
<path d="M523.691 329.309H496.065V356.935H523.691V329.309Z" fill="#01002D"/>
<path d="M551.317 329.309H523.691V356.935H551.317V329.309Z" fill="#01002D"/>
<path d="M578.943 329.309H551.317V356.935H578.943V329.309Z" fill="#01002D"/>
<path d="M634.196 329.309H606.57V356.935H634.196V329.309Z" fill="#01002D"/>
<path d="M661.822 329.309H634.196V356.935H661.822V329.309Z" fill="#01002D"/>
<path d="M772.326 329.309H744.7V356.935H772.326V329.309Z" fill="#01002D"/>
<path d="M109.3 356.935H81.6738V384.561H109.3V356.935Z" fill="#01002D"/>
<path d="M136.926 356.935H109.3V384.561H136.926V356.935Z" fill="#01002D"/>
<path d="M219.804 356.935H192.178V384.561H219.804V356.935Z" fill="#01002D"/>
<path d="M275.057 356.935H247.43V384.561H275.057V356.935Z" fill="#01002D"/>
<path d="M330.309 356.935H302.683V384.561H330.309V356.935Z" fill="#01002D"/>
<path d="M357.935 356.935H330.309V384.561H357.935V356.935Z" fill="#01002D"/>
<path d="M440.813 356.935H413.187V384.561H440.813V356.935Z" fill="#01002D"/>
<path d="M468.439 356.935H440.813V384.561H468.439V356.935Z" fill="#01002D"/>
<path d="M496.065 356.935H468.439V384.561H496.065V356.935Z" fill="#01002D"/>
<path d="M523.691 356.935H496.065V384.561H523.691V356.935Z" fill="#01002D"/>
<path d="M578.943 356.935H551.317V384.561H578.943V356.935Z" fill="#01002D"/>
<path d="M606.569 356.935H578.943V384.561H606.569V356.935Z" fill="#01002D"/>
<path d="M661.822 356.935H634.196V384.561H661.822V356.935Z" fill="#01002D"/>
<path d="M717.074 356.935H689.448V384.561H717.074V356.935Z" fill="#01002D"/>
<path d="M109.3 384.561H81.6738V412.187H109.3V384.561Z" fill="#01002D"/>
<path d="M219.804 384.561H192.178V412.187H219.804V384.561Z" fill="#01002D"/>
<path d="M330.309 384.561H302.683V412.187H330.309V384.561Z" fill="#01002D"/>
<path d="M357.935 384.561H330.309V412.187H357.935V384.561Z" fill="#01002D"/>
<path d="M385.561 384.561H357.935V412.187H385.561V384.561Z" fill="#01002D"/>
<path d="M413.187 384.561H385.561V412.187H413.187V384.561Z" fill="#01002D"/>
<path d="M496.065 384.561H468.439V412.187H496.065V384.561Z" fill="#01002D"/>
<path d="M551.317 384.561H523.691V412.187H551.317V384.561Z" fill="#01002D"/>
<path d="M109.3 412.187H81.6738V439.813H109.3V412.187Z" fill="#01002D"/>
<path d="M136.926 412.187H109.3V439.813H136.926V412.187Z" fill="#01002D"/>
<path d="M192.178 412.187H164.552V439.813H192.178V412.187Z" fill="#01002D"/>
<path d="M275.057 412.187H247.43V439.813H275.057V412.187Z" fill="#01002D"/>
<path d="M302.683 412.187H275.057V439.813H302.683V412.187Z" fill="#01002D"/>
<path d="M357.935 412.187H330.309V439.813H357.935V412.187Z" fill="#01002D"/>
<path d="M440.813 412.187H413.187V439.813H440.813V412.187Z" fill="#01002D"/>
<path d="M468.439 412.187H440.813V439.813H468.439V412.187Z" fill="#01002D"/>
<path d="M523.691 412.187H496.065V439.813H523.691V412.187Z" fill="#01002D"/>
<path d="M551.317 412.187H523.691V439.813H551.317V412.187Z" fill="#01002D"/>
<path d="M578.943 412.187H551.317V439.813H578.943V412.187Z" fill="#01002D"/>
<path d="M606.569 412.187H578.943V439.813H606.569V412.187Z" fill="#01002D"/>
<path d="M634.196 412.187H606.57V439.813H634.196V412.187Z" fill="#01002D"/>
<path d="M661.822 412.187H634.196V439.813H661.822V412.187Z" fill="#01002D"/>
<path d="M689.448 412.187H661.822V439.813H689.448V412.187Z" fill="#01002D"/>
<path d="M744.7 412.187H717.074V439.813H744.7V412.187Z" fill="#01002D"/>
<path d="M772.326 412.187H744.7V439.813H772.326V412.187Z" fill="#01002D"/>
<path d="M109.3 439.813H81.6738V467.439H109.3V439.813Z" fill="#01002D"/>
<path d="M247.431 439.813H219.804V467.439H247.431V439.813Z" fill="#01002D"/>
<path d="M385.561 439.813H357.935V467.439H385.561V439.813Z" fill="#01002D"/>
<path d="M551.317 439.813H523.691V467.439H551.317V439.813Z" fill="#01002D"/>
<path d="M578.943 439.813H551.317V467.439H578.943V439.813Z" fill="#01002D"/>
<path d="M634.196 439.813H606.57V467.439H634.196V439.813Z" fill="#01002D"/>
<path d="M661.822 439.813H634.196V467.439H661.822V439.813Z" fill="#01002D"/>
<path d="M772.326 439.813H744.7V467.439H772.326V439.813Z" fill="#01002D"/>
<path d="M109.3 467.439H81.6738V495.065H109.3V467.439Z" fill="#01002D"/>
<path d="M164.552 467.439H136.926V495.065H164.552V467.439Z" fill="#01002D"/>
<path d="M275.057 467.439H247.43V495.065H275.057V467.439Z" fill="#01002D"/>
<path d="M357.935 467.439H330.309V495.065H357.935V467.439Z" fill="#01002D"/>
<path d="M385.561 467.439H357.935V495.065H385.561V467.439Z" fill="#01002D"/>
<path d="M440.813 467.439H413.187V495.065H440.813V467.439Z" fill="#01002D"/>
<path d="M468.439 467.439H440.813V495.065H468.439V467.439Z" fill="#01002D"/>
<path d="M496.065 467.439H468.439V495.065H496.065V467.439Z" fill="#01002D"/>
<path d="M523.691 467.439H496.065V495.065H523.691V467.439Z" fill="#01002D"/>
<path d="M551.317 467.439H523.691V495.065H551.317V467.439Z" fill="#01002D"/>
<path d="M578.943 467.439H551.317V495.065H578.943V467.439Z" fill="#01002D"/>
<path d="M606.569 467.439H578.943V495.065H606.569V467.439Z" fill="#01002D"/>
<path d="M661.822 467.439H634.196V495.065H661.822V467.439Z" fill="#01002D"/>
<path d="M717.074 467.439H689.448V495.065H717.074V467.439Z" fill="#01002D"/>
<path d="M744.7 467.439H717.074V495.065H744.7V467.439Z" fill="#01002D"/>
<path d="M109.3 495.065H81.6738V522.691H109.3V495.065Z" fill="#01002D"/>
<path d="M164.552 495.065H136.926V522.691H164.552V495.065Z" fill="#01002D"/>
<path d="M192.178 495.065H164.552V522.691H192.178V495.065Z" fill="#01002D"/>
<path d="M247.431 495.065H219.804V522.691H247.431V495.065Z" fill="#01002D"/>
<path d="M330.309 495.065H302.683V522.691H330.309V495.065Z" fill="#01002D"/>
<path d="M385.561 495.065H357.935V522.691H385.561V495.065Z" fill="#01002D"/>
<path d="M413.187 495.065H385.561V522.691H413.187V495.065Z" fill="#01002D"/>
<path d="M496.065 495.065H468.439V522.691H496.065V495.065Z" fill="#01002D"/>
<path d="M551.317 495.065H523.691V522.691H551.317V495.065Z" fill="#01002D"/>
<path d="M744.7 495.065H717.074V522.691H744.7V495.065Z" fill="#01002D"/>
<path d="M772.326 495.065H744.7V522.691H772.326V495.065Z" fill="#01002D"/>
<path d="M109.3 522.691H81.6738V550.317H109.3V522.691Z" fill="#01002D"/>
<path d="M164.552 522.691H136.926V550.317H164.552V522.691Z" fill="#01002D"/>
<path d="M192.178 522.691H164.552V550.317H192.178V522.691Z" fill="#01002D"/>
<path d="M219.804 522.691H192.178V550.317H219.804V522.691Z" fill="#01002D"/>
<path d="M275.057 522.691H247.43V550.317H275.057V522.691Z" fill="#01002D"/>
<path d="M330.309 522.691H302.683V550.317H330.309V522.691Z" fill="#01002D"/>
<path d="M357.935 522.691H330.309V550.317H357.935V522.691Z" fill="#01002D"/>
<path d="M385.561 522.691H357.935V550.317H385.561V522.691Z" fill="#01002D"/>
<path d="M496.065 522.691H468.439V550.317H496.065V522.691Z" fill="#01002D"/>
<path d="M523.691 522.691H496.065V550.317H523.691V522.691Z" fill="#01002D"/>
<path d="M551.317 522.691H523.691V550.317H551.317V522.691Z" fill="#01002D"/>
<path d="M578.943 522.691H551.317V550.317H578.943V522.691Z" fill="#01002D"/>
<path d="M606.569 522.691H578.943V550.317H606.569V522.691Z" fill="#01002D"/>
<path d="M634.196 522.691H606.57V550.317H634.196V522.691Z" fill="#01002D"/>
<path d="M661.822 522.691H634.196V550.317H661.822V522.691Z" fill="#01002D"/>
<path d="M689.448 522.691H661.822V550.317H689.448V522.691Z" fill="#01002D"/>
<path d="M772.326 522.691H744.7V550.317H772.326V522.691Z" fill="#01002D"/>
<path d="M330.309 550.317H302.683V577.943H330.309V550.317Z" fill="#01002D"/>
<path d="M357.935 550.317H330.309V577.943H357.935V550.317Z" fill="#01002D"/>
<path d="M496.065 550.317H468.439V577.943H496.065V550.317Z" fill="#01002D"/>
<path d="M551.317 550.317H523.691V577.943H551.317V550.317Z" fill="#01002D"/>
<path d="M661.822 550.317H634.196V577.943H661.822V550.317Z" fill="#01002D"/>
<path d="M772.326 550.317H744.7V577.943H772.326V550.317Z" fill="#01002D"/>
<path d="M109.3 577.943H81.6738V605.569H109.3V577.943Z" fill="#01002D"/>
<path d="M136.926 577.943H109.3V605.569H136.926V577.943Z" fill="#01002D"/>
<path d="M164.552 577.943H136.926V605.569H164.552V577.943Z" fill="#01002D"/>
<path d="M192.178 577.943H164.552V605.569H192.178V577.943Z" fill="#01002D"/>
<path d="M219.804 577.943H192.178V605.569H219.804V577.943Z" fill="#01002D"/>
<path d="M247.431 577.943H219.804V605.569H247.431V577.943Z" fill="#01002D"/>
<path d="M275.057 577.943H247.43V605.569H275.057V577.943Z" fill="#01002D"/>
<path d="M330.309 577.943H302.683V605.569H330.309V577.943Z" fill="#01002D"/>
<path d="M413.187 577.943H385.561V605.569H413.187V577.943Z" fill="#01002D"/>
<path d="M440.813 577.943H413.187V605.569H440.813V577.943Z" fill="#01002D"/>
<path d="M468.439 577.943H440.813V605.569H468.439V577.943Z" fill="#01002D"/>
<path d="M523.691 577.943H496.065V605.569H523.691V577.943Z" fill="#01002D"/>
<path d="M551.317 577.943H523.691V605.569H551.317V577.943Z" fill="#01002D"/>
<path d="M606.569 577.943H578.943V605.569H606.569V577.943Z" fill="#01002D"/>
<path d="M661.822 577.943H634.196V605.569H661.822V577.943Z" fill="#01002D"/>
<path d="M717.074 577.943H689.448V605.569H717.074V577.943Z" fill="#01002D"/>
<path d="M744.7 577.943H717.074V605.569H744.7V577.943Z" fill="#01002D"/>
<path d="M772.326 577.943H744.7V605.569H772.326V577.943Z" fill="#01002D"/>
<path d="M109.3 605.57H81.6738V633.196H109.3V605.57Z" fill="#01002D"/>
<path d="M275.057 605.57H247.43V633.196H275.057V605.57Z" fill="#01002D"/>
<path d="M357.935 605.57H330.309V633.196H357.935V605.57Z" fill="#01002D"/>
<path d="M385.561 605.57H357.935V633.196H385.561V605.57Z" fill="#01002D"/>
<path d="M413.187 605.57H385.561V633.196H413.187V605.57Z" fill="#01002D"/>
<path d="M440.813 605.57H413.187V633.196H440.813V605.57Z" fill="#01002D"/>
<path d="M468.439 605.57H440.813V633.196H468.439V605.57Z" fill="#01002D"/>
<path d="M551.317 605.57H523.691V633.196H551.317V605.57Z" fill="#01002D"/>
<path d="M661.822 605.57H634.196V633.196H661.822V605.57Z" fill="#01002D"/>
<path d="M689.448 605.57H661.822V633.196H689.448V605.57Z" fill="#01002D"/>
<path d="M109.3 633.196H81.6738V660.822H109.3V633.196Z" fill="#01002D"/>
<path d="M164.552 633.196H136.926V660.822H164.552V633.196Z" fill="#01002D"/>
<path d="M192.178 633.196H164.552V660.822H192.178V633.196Z" fill="#01002D"/>
<path d="M219.804 633.196H192.178V660.822H219.804V633.196Z" fill="#01002D"/>
<path d="M275.057 633.196H247.43V660.822H275.057V633.196Z" fill="#01002D"/>
<path d="M330.309 633.196H302.683V660.822H330.309V633.196Z" fill="#01002D"/>
<path d="M468.439 633.196H440.813V660.822H468.439V633.196Z" fill="#01002D"/>
<path d="M496.065 633.196H468.439V660.822H496.065V633.196Z" fill="#01002D"/>
<path d="M551.317 633.196H523.691V660.822H551.317V633.196Z" fill="#01002D"/>
<path d="M578.943 633.196H551.317V660.822H578.943V633.196Z" fill="#01002D"/>
<path d="M606.569 633.196H578.943V660.822H606.569V633.196Z" fill="#01002D"/>
<path d="M634.196 633.196H606.57V660.822H634.196V633.196Z" fill="#01002D"/>
<path d="M661.822 633.196H634.196V660.822H661.822V633.196Z" fill="#01002D"/>
<path d="M689.448 633.196H661.822V660.822H689.448V633.196Z" fill="#01002D"/>
<path d="M109.3 660.822H81.6738V688.448H109.3V660.822Z" fill="#01002D"/>
<path d="M164.552 660.822H136.926V688.448H164.552V660.822Z" fill="#01002D"/>
<path d="M192.178 660.822H164.552V688.448H192.178V660.822Z" fill="#01002D"/>
<path d="M219.804 660.822H192.178V688.448H219.804V660.822Z" fill="#01002D"/>
<path d="M275.057 660.822H247.43V688.448H275.057V660.822Z" fill="#01002D"/>
<path d="M330.309 660.822H302.683V688.448H330.309V660.822Z" fill="#01002D"/>
<path d="M385.561 660.822H357.935V688.448H385.561V660.822Z" fill="#01002D"/>
<path d="M413.187 660.822H385.561V688.448H413.187V660.822Z" fill="#01002D"/>
<path d="M440.813 660.822H413.187V688.448H440.813V660.822Z" fill="#01002D"/>
<path d="M496.065 660.822H468.439V688.448H496.065V660.822Z" fill="#01002D"/>
<path d="M523.691 660.822H496.065V688.448H523.691V660.822Z" fill="#01002D"/>
<path d="M551.317 660.822H523.691V688.448H551.317V660.822Z" fill="#01002D"/>
<path d="M661.822 660.822H634.196V688.448H661.822V660.822Z" fill="#01002D"/>
<path d="M744.7 660.822H717.074V688.448H744.7V660.822Z" fill="#01002D"/>
<path d="M772.326 660.822H744.7V688.448H772.326V660.822Z" fill="#01002D"/>
<path d="M109.3 688.448H81.6738V716.074H109.3V688.448Z" fill="#01002D"/>
<path d="M164.552 688.448H136.926V716.074H164.552V688.448Z" fill="#01002D"/>
<path d="M192.178 688.448H164.552V716.074H192.178V688.448Z" fill="#01002D"/>
<path d="M219.804 688.448H192.178V716.074H219.804V688.448Z" fill="#01002D"/>
<path d="M275.057 688.448H247.43V716.074H275.057V688.448Z" fill="#01002D"/>
<path d="M330.309 688.448H302.683V716.074H330.309V688.448Z" fill="#01002D"/>
<path d="M357.935 688.448H330.309V716.074H357.935V688.448Z" fill="#01002D"/>
<path d="M413.187 688.448H385.561V716.074H413.187V688.448Z" fill="#01002D"/>
<path d="M440.813 688.448H413.187V716.074H440.813V688.448Z" fill="#01002D"/>
<path d="M468.439 688.448H440.813V716.074H468.439V688.448Z" fill="#01002D"/>
<path d="M496.065 688.448H468.439V716.074H496.065V688.448Z" fill="#01002D"/>
<path d="M523.691 688.448H496.065V716.074H523.691V688.448Z" fill="#01002D"/>
<path d="M578.943 688.448H551.317V716.074H578.943V688.448Z" fill="#01002D"/>
<path d="M661.822 688.448H634.196V716.074H661.822V688.448Z" fill="#01002D"/>
<path d="M717.074 688.448H689.448V716.074H717.074V688.448Z" fill="#01002D"/>
<path d="M772.326 688.448H744.7V716.074H772.326V688.448Z" fill="#01002D"/>
<path d="M109.3 716.074H81.6738V743.7H109.3V716.074Z" fill="#01002D"/>
<path d="M275.057 716.074H247.43V743.7H275.057V716.074Z" fill="#01002D"/>
<path d="M330.309 716.074H302.683V743.7H330.309V716.074Z" fill="#01002D"/>
<path d="M357.935 716.074H330.309V743.7H357.935V716.074Z" fill="#01002D"/>
<path d="M385.561 716.074H357.935V743.7H385.561V716.074Z" fill="#01002D"/>
<path d="M413.187 716.074H385.561V743.7H413.187V716.074Z" fill="#01002D"/>
<path d="M496.065 716.074H468.439V743.7H496.065V716.074Z" fill="#01002D"/>
<path d="M578.943 716.074H551.317V743.7H578.943V716.074Z" fill="#01002D"/>
<path d="M606.569 716.074H578.943V743.7H606.569V716.074Z" fill="#01002D"/>
<path d="M634.196 716.074H606.57V743.7H634.196V716.074Z" fill="#01002D"/>
<path d="M661.822 716.074H634.196V743.7H661.822V716.074Z" fill="#01002D"/>
<path d="M689.448 716.074H661.822V743.7H689.448V716.074Z" fill="#01002D"/>
<path d="M744.7 716.074H717.074V743.7H744.7V716.074Z" fill="#01002D"/>
<path d="M109.3 743.7H81.6738V771.326H109.3V743.7Z" fill="#01002D"/>
<path d="M136.926 743.7H109.3V771.326H136.926V743.7Z" fill="#01002D"/>
<path d="M164.552 743.7H136.926V771.326H164.552V743.7Z" fill="#01002D"/>
<path d="M192.178 743.7H164.552V771.326H192.178V743.7Z" fill="#01002D"/>
<path d="M219.804 743.7H192.178V771.326H219.804V743.7Z" fill="#01002D"/>
<path d="M247.431 743.7H219.804V771.326H247.431V743.7Z" fill="#01002D"/>
<path d="M275.057 743.7H247.43V771.326H275.057V743.7Z" fill="#01002D"/>
<path d="M330.309 743.7H302.683V771.326H330.309V743.7Z" fill="#01002D"/>
<path d="M357.935 743.7H330.309V771.326H357.935V743.7Z" fill="#01002D"/>
<path d="M385.561 743.7H357.935V771.326H385.561V743.7Z" fill="#01002D"/>
<path d="M468.439 743.7H440.813V771.326H468.439V743.7Z" fill="#01002D"/>
<path d="M496.065 743.7H468.439V771.326H496.065V743.7Z" fill="#01002D"/>
<path d="M523.691 743.7H496.065V771.326H523.691V743.7Z" fill="#01002D"/>
<path d="M551.317 743.7H523.691V771.326H551.317V743.7Z" fill="#01002D"/>
<path d="M717.074 743.7H689.448V771.326H717.074V743.7Z" fill="#01002D"/>
<path d="M744.7 743.7H717.074V771.326H744.7V743.7Z" fill="#01002D"/>
<path d="M772.326 743.7H744.7V771.326H772.326V743.7Z" fill="#01002D"/>
</g>
<defs>
<clipPath id="clip0_27_340">
<rect width="706" height="706" fill="white" transform="translate(74 73)"/>
</clipPath>
</defs>
</svg>
