<svg width="1324" height="1419" fill="none" xmlns="http://www.w3.org/2000/svg"><g clip-path="url(#a)"><path d="M1096.2 339.265c-92.81 3.939-131.557-19.913-122.99-34.618 53.7 9.827 125.66 20.752 171.99-16.198 23.17-18.48 35.56-44.982 34.46-81.396-12.74 14.271-19.68 15.96-28.82 21.964-57.25 37.638-153.12-34.135-207.724-60.271-50.405-24.127-52.817-27.753-106.732-28.381-64.665-.75-161.241.822-164.415 10.096l-.076.367c.009-.123.035-.246.076-.367 8.867-41.302 108.315-53.267 162.923-66.048 43.128-10.097 67.227-37.944 68.804-84-8.385.686-32.949 22.64-75.677 30.278-75.777 13.548-171.569-.193-253.362 8.885-88.337 9.802-206.261 29.644-239.936 126.17-6.959 19.947 0 92.254 3.279 116.254 7.994 58.501-37 74.5-78.469 125.357-20.208 22.004-32.152 49.068-42.2 77.883-29.025 21.283-56.744 44.439-82.968 69.043-44.851 28.499-96.394 80.777-122.992 125.824C2.894 694.463-2.483 708.524 2 725.352c2.937 11.013 9.018 18.34 14.614 27.75 15.072 25.35 29.632 56.109 53.764 74.461a105.316 105.316 0 0 0 5.165 11.884c1.487 2.912 3.096 5.801 4.47 8.766a97.77 97.77 0 0 0-3.028 16.15c-2.049 19.955.854 41.394 4.188 61.106 5.273 31.158 13.057 60.918 26.57 89.641 6.417 13.63 12.004 23.21 24.016 32.93 40.053 32.4 28.321 14.31 99.799 51.97C197 1060 198.861 1041.16 201.5 1041c5.224-.32 28.524 15.6 46.07 25 19.075 10.21 34.674 1.78 44.43 4.5-26.5-29-26.779-19.25-32.441-33.27C255.43 1027 291.82 1005.6 309 997c24.967-12.5 66.21-24.711 83.94-23.905 4.507.122-36.457 65.265-31.947 65.215 17.546-12.73 21.235-18.37 20.676-8.78-5.877 100.49 8.181 165.13 29.944 221.01l53.92 138.43 14.717-132.82c2.23-42.46 13.596-61.66 29.669-98.82 16.3 104.87 40.478 156.22 131.973 223.79 9.118-79.7 41.208-128.53 88.627-162.37 35.826 65.55-2.33 93.15-27.354 198.99 47.658-43.47 117.549-117.27 125.384-149.98 3.119-13.04 4.561-48.67 7.892-54.61 45.546 37.5 32.575 84.42 22.376 130.39 20.815-5.48 42.513-46.55 50.62-63.96 23.355-50.14 25.923-115.21 15.1-173.96 13.669-35.12 44.888-20.23 61.815 1.63 4.995 10.43 8.406 19.29 9.458 26.46 11.67 79.56-35.273 80.14-47.422 88.36 32.155 19.13 82.702-5.42 102.322-32.11 59.27-80.6 2.58-130.32-13.22-197.055-9.75-41.159 32.95-69.749 60.82-29.155 31.74 46.24 36.2 80.89-5.05 137.68 20.73-.26 49.06-12.5 65.43-24.89 26.3-19.9 40.52-50.29 40.7-86.853.32-61.202-49.68-83.586-60.86-127.277-6.25-24.419-11.8-59.539 19.87-41.862 22.66 12.653 42.29 29.453 54.84 56.389 11.27 24.201 9.26 38.338 14.39 68.155 14.18-33.631 21.48-72.392 20.51-85.849-2.65-36.749-20.2-68.597-46.96-93.356-34.32-31.772 10.02-60.249 33.32-42.147 29.93 23.261 35.64 54.729 37.62 92.477 17.21-25.662 40.22-86.79 16.96-133.911-15.32-31.023-38.27-45.93-62.9-56.015-41.68-17.066-88.2-20.327-110.76-64.562 10.85.091 42.25 3.093 50.02-4.174-18.44-1.533-39.66-18.145-56.31-27.064 19.27-4.072 51.72-3.091 71.19-2.109 82.63 4.169 113.23 29.834 121.47 112.762 73.95-123.747-58.3-202.54-171.96-194.45-10.66.758-29.23 2.608-63.23 11.119 6.18 3.436 18.55 4.339 30.69 5.519 5.86.573 34.94 5.04 37.64 9.532-45.59 2.032-138.657 15.233-151.126-48.997 8.862 1.402 15.985 4.41 25.936 7.103 66.33 17.949 130.02 9.055 187.38-47.839 23.79-23.602 43.62-95.108 22.15-117.569-20.14 29.842-37.31 70.065-123.07 73.7v.003Z" fill="#2B2A29"/><path d="M671.969 150.461c3.174-9.274 99.75-10.846 164.415-10.096 53.915.628 56.327 4.254 106.732 28.381 54.604 26.136 150.474 97.909 207.724 60.271 9.14-6.004 16.08-7.693 28.82-21.964 1.1 36.414-11.29 62.916-34.46 81.396-46.33 36.95-118.29 26.025-171.99 16.198-8.567 14.705 30.18 38.557 122.99 34.618v-.003c85.76-3.635 102.93-43.858 123.07-73.7 21.47 22.461 1.64 93.967-22.15 117.569-57.36 56.894-121.05 65.788-187.38 47.839-9.951-2.693-17.074-5.701-25.936-7.103 12.469 64.23 105.536 51.029 151.126 48.997-2.7-4.492-31.78-8.959-37.64-9.532-12.14-1.18-24.51-2.083-30.69-5.519 34-8.511 52.57-10.361 63.23-11.119 113.66-8.09 245.91 70.703 171.96 194.45-8.24-82.928-38.84-108.593-121.47-112.762-19.47-.982-51.92-1.963-71.19 2.109 16.65 8.919 37.87 25.531 56.31 27.064-7.77 7.267-39.17 4.265-50.02 4.174 22.56 44.235 69.08 47.496 110.76 64.562 24.63 10.085 47.58 24.992 62.9 56.015 23.26 47.121.25 108.249-16.96 133.911-1.98-37.748-7.69-69.216-37.62-92.477-23.3-18.102-67.64 10.375-33.32 42.147 26.76 24.759 44.31 56.607 46.96 93.356.97 13.457-6.33 52.218-20.51 85.849-5.13-29.817-3.12-43.954-14.39-68.155-12.55-26.936-32.18-43.736-54.84-56.389-31.67-17.677-26.12 17.443-19.87 41.862 11.18 43.691 61.18 66.075 60.86 127.277-.18 36.563-14.4 66.953-40.7 86.853-16.37 12.39-44.7 24.63-65.43 24.89 41.25-56.79 36.79-91.44 5.05-137.68-27.87-40.594-70.57-12.004-60.82 29.155 15.8 66.735 72.49 116.455 13.22 197.055-19.62 26.69-70.167 51.24-102.322 32.11 12.149-8.22 59.092-8.8 47.422-88.36-1.052-7.17-4.463-16.03-9.458-26.46-16.927-21.86-48.146-36.75-61.815-1.63 10.823 58.75 8.255 123.82-15.1 173.96-8.107 17.41-29.805 58.48-50.62 63.96 10.199-45.97 23.17-92.89-22.376-130.39-3.331 5.94-4.773 41.57-7.892 54.61-7.835 32.71-77.726 106.51-125.384 149.98 25.024-105.84 63.18-133.44 27.354-198.99-47.419 33.84-79.509 82.67-88.627 162.37-91.495-67.57-115.673-118.92-131.973-223.79-16.073 37.16-27.439 56.36-29.669 98.82l-14.717 132.82-53.92-138.43c-21.763-55.88-35.821-120.52-29.944-221.01.559-9.59-3.13-3.95-20.676 8.78-4.51.05 36.454-65.093 31.947-65.215C375.21 972.289 333.967 984.5 309 997c-17.18 8.6-53.57 30-49.441 40.23 5.662 14.02 5.941 4.27 32.441 33.27-9.756-2.72-25.355 5.71-44.43-4.5-17.546-9.4-40.846-25.32-46.07-25-2.639.16-4.5 19 30.059 59.01-71.478-37.66-59.746-19.57-99.799-51.97-12.012-9.72-17.599-19.3-24.016-32.93-13.513-28.723-21.297-58.483-26.57-89.641-3.334-19.712-6.237-41.151-4.188-61.106a97.77 97.77 0 0 1 3.028-16.15c-1.374-2.965-2.983-5.854-4.47-8.766a105.316 105.316 0 0 1-5.165-11.884c-24.132-18.352-38.693-49.111-53.764-74.461-5.596-9.41-11.677-16.737-14.614-27.75-4.484-16.828.893-30.889 9.37-45.245 26.598-45.047 78.14-97.325 122.992-125.824 26.224-24.604 53.943-47.76 82.968-69.043 10.048-28.815 21.992-55.879 42.2-77.883C301 356.5 345.994 340.501 338 282c-3.279-24-10.238-96.307-3.279-116.254C368.396 69.22 486.32 49.378 574.657 39.576c81.793-9.078 177.585 4.663 253.362-8.885C870.747 23.052 895.311 1.1 903.696.412c-1.577 46.057-25.676 73.904-68.804 84.001-54.608 12.78-154.056 24.746-162.923 66.048Zm0 0-.076.367c.009-.123.035-.246.076-.367Z" stroke="#2B2A29" stroke-width=".755" stroke-miterlimit="22.926"/><path fill-rule="evenodd" clip-rule="evenodd" d="M403.616 311.361c22.83-20.432 51.364-30.821 81.359-30.055-10.991-106.064 78.606-136.985 164.483-149.235 11.879-30.943 49.998-45.833 79.579-54.622 32.87-9.77 66.693-14.898 100.017-22.699 8.431-1.972 16.014-4.74 22.561-8.584a188.29 188.29 0 0 1-19.064 4.452c-42.434 7.586-86.334 7.114-129.298 6.516-103.893-1.445-304.413-2.776-344.42 111.902-2.659 7.613-3.459 21.175-4.061 29.734 5.122-8.593 12.052-18.105 21.669-28.588 15.319-16.697 48.935-44.227 81.379-41.721-1.91 5.573-15.321 13.894-20.616 19.033-22.597 21.947-31.431 53.972-36.204 86.495-4.674 31.849-2.134 57.164 2.619 77.372h-.003Zm178.686 15.676a151.044 151.044 0 0 1 23.06 32.742c22.475 43.151 19.56 93.062-11.292 131.423-4.881 6.07-10.276 11.655-16.087 16.782 7.977 3.766 15.883 7.674 23.755 11.647 28.616 14.447 56.593 30.185 83.739 47.206 48.946 30.688 115.736 78.013 141.866 130.282 25.492 50.992 45.158 106.374 42.936 163.944 4.424-11.031 9.177-21.508 14.887-32.028 4.117-7.588-.225-3.118 6.342-6.66.849 22.708-2.066 48.072 1.913 68.91 12.341 64.664 40.634 120.365 64.233 163.655 57.156 9.52 74.376 76.96 62.276 125.51 3.95-3.21 7.48-6.72 10.2-10.43 34.78-47.3 21.56-76.94 1-124.52-11.28-26.12-25.5-57.589-18.43-86.367-28.496-40.94-58.911-76.083-78.149-133.301-7.48-22.246-15.571-61.58-2.934-82.719 3.096 4.163 3.119 29.224 21.927 59.137 20.33 37.578 66.336 68.194 105.396 112.205 8.02-1.28 16.3-.721 24.27 1.728 15.24 4.68 27.31 15.387 36.17 28.29 16.43 23.931 29.38 49.613 29.28 79.237-.03 8.92-1.26 17.63-3.42 26.11 20.09-16.26 28.53-39.77 28.66-65.266.12-23.315-9.43-39.479-22.99-57.439-15.52-20.552-30.51-37.74-37.09-63.47-1-3.885-1.99-8-2.85-12.225-32.42-24.127-76.28-46.191-100.51-78.938-8.13-10.988-28.64-50.164-17.593-65.649 3.63 5.488 6.485 14.078 9.963 19.637 26.43 42.2 70.56 57.056 112.7 73.793 26.27-38.437 82.95 7.54 102.64 31.783-6.28-20.119-18.38-37.821-34.37-52.629-11.42-10.562-19.94-24.115-20.65-39.947-.03-.843-.05-1.683-.04-2.52-7.88-4.717-15.79-8.8-23.39-12.058-13.53-5.806-46.05-14.552-55.03-23.494 13.54-11.215 76.1-6.586 97.68-1.782 33.74-25.985 69.79-6.87 91.06 23.244.03-11.904-2-23.78-7.25-34.399-11.03-22.339-26.89-34.405-49.71-43.75-26.49-10.843-54.58-16.084-79.65-30.594-51.11 3.556-147.554 34.655-185.344 21.332-16.598-5.852-42.97-19.72-41.662-40.427 48.356 25.256 110.806 12.962 120.476-17.231-48.345-.551-74.952-1.763-108.412-23.545-23.653-15.398-46.352-57.476-44.383-77.784.701-7.224-.258-2.897 2.143-6.095 4.384 3.502 5.817 9.453 9.764 14.762 23.313 31.383 56.148 53.203 95.94 62.715 34.428 8.232 68.738 11.498 104.778 12.228-.71-5.128.21-10.372 2.71-15.089-16.31-13.354-9.91-39.856 11-44.269 13.19-2.784 27.1-3.354 40.55-3.502 48.52-.53 110.62 1.998 145.99 38.37-4.82-9.819-11.97-18.923-21.3-27.311-28.07-25.211-69.67-38.574-108.6-41.281.49 13.826-10.36 25.557-24.39 26.181-49.3 2.197-115.74 10.463-154.711-26.902-21.19-6.476-59.207-26.993-63.609-49.652 8.874 1.404 16.008 4.415 25.974 7.111 4.952 1.34 10.25 2.563 15.841 3.65a97.029 97.029 0 0 1-.8-3.715c-1.601-8.241.842-16.385 6.717-22.413 5.865-6.019 14.01-8.715 22.336-7.398 10.028 1.586 18.942 5.057 28.632 7.679 63.4 17.154 115.82 5.131 162.65-41.323 6.87-6.814 12.74-19.516 16.76-31.281-28.27 21.706-63.42 29.155-98.57 30.645-4.72.201-9.57.349-14.51.423-23.52 8.002-57.19 15.44-89.043 18.55-29.785 2.909-147.453-4.676-156.648-25.628 21.028-10.934 88.082-2.139 114.036-7.625-43.968-19.498-62.666-20.985-74.593-23.357-32.135-6.394-67.289-6.411-97.895-1.961l-37.209 9.191c-55.524 18.088-72.95 50.666-81.424 53.881 1.476-18.573 24.084-52.417 34.527-64.647 35.353-41.412 90.349-52.723 145.626-42.961 21.612 3.817 63.609 8.629 81.413 15.607 8.454 3.315 16.728 5.279 25.48 7.027.659-3.777 1.998-7.52 4.089-11.116 5.418-9.302 16.054-14.174 26.695-12.225 44.836 8.204 112.826 19.728 151.396-11.036a67.934 67.934 0 0 0 8.25-7.756c-24.25 4.825-51.8.838-74-4.821-10.03-2.56-22.18-6.357-34.28-11.204-63.724-16.152-74.388-67.411-178.6-75.921-17.781-1.453-34.286-.52-51.159 1.402-33.977 3.87-58.007 4.838-91.686 6.365-32.381 1.467-58.262 7.154-93.357 22.421-41.099 17.881-75.692 73.555-70.742 86.163 9.543-3.848 27.603-29.234 90.022-48.477 21.823-6.729 31.673-9.152 58.472-9.393 14.178-.131 51.265 1.478 62.094 5.068-1.277 3.95 3.042 1.51-5.727 3.607-14.927 3.575-37.995.533-66.767 8.524-39.533 10.977-78.879 35.05-95.15 74.39-1.896 4.58-3.295 8.87-4.317 12.98l.009-.006ZM841.768 969.84l-2.827-3.283c-22.412 45.893-56.82 83.703-96.836 116.083-20.582 16.65-42.473 31.85-64.8 46.1l-52.925 30.78c-15.06 8.17-30.313 15.98-45.711 23.5l-33.687 16.46c10.994 44.97 26.945 76.36 53.915 105.74 2.415-6.42 4.697-13.01 7.886-18.08 5.576 1.77 2.214-.16 5.576 4.63 3.457 4.91 3.996 10.97 5.196 16.88 1.187 5.83 2.001 11.6 2.498 17.31 1.39 1.24 2.803 2.49 4.239 3.73 11.621-46.73 33.543-86.46 69.103-118.65-8.823-29.97-19.896-50.58-20.863-56.98 13.263 2.65 30.775 18.66 45.517 37.58 5.523-3.11 11.857-4.03 18.174-2.59 7.261 1.65 13.161 6.09 16.714 12.6 19.328 35.36 22.401 64.87 11.243 103.47-1.359 4.7-2.84 9.35-4.396 13.98.582-.66 1.164-1.32 1.743-1.99 10.749-12.31 38.605-45.14 42.215-60.22 1.912-8 2.451-18.41 3.308-26.69 1.07-10.35 2.066-25.39 7.117-34.39 7.784-13.87 26.244-17.31 38.554-7.17 20.634 16.99 33.815 37.54 38.986 62.27 23.411-63.61 1.436-139.87 9.049-159.43 3.374-8.68 8.136-16.35 14.087-22.44-3.002-10.3-6.411-20.24-10.19-29.66-4.039-10.07-12.79-28.63-19.448-35.91-9.293 7.82-13.981 35.25-15.304 47.06-2.491 22.18-2.088 38.18-2.579 60.89-6.363-3-3.61.24-7.319-7.2-19.731-39.63-23.522-87.85-18.244-134.377l.009-.003Z" fill="url(#b)"/><path fill-rule="evenodd" clip-rule="evenodd" d="M190.048 1014.86C193.289 1011.87 214 1046 258.5 1053c-57-42.5-15.326-69.777 25.839-75.819 30.631-4.495 50.995-17.251 88.774-36.749 23.304-10.968 31.805-27.245 38.488-53.744l51.546-31.363-45.317 2.897 1.218-5.954c37.674-5.567 30.338-50.705 18.678-120.665 24.618 19.226 35.847 36.471 51.588 77.968 10.684-44.899 7.134-70.107-6.765-115.097 28.184 9.941 43.361 20.134 69.102 48.268-11.013-62.434-30.696-89.68-80.306-129.953h44.037c-21.275-54.786-42.119-76.109-90.724-102.106 280.136-27.844 80.95-263.609 0-146.656-133.787 13.925-164.559 50.141-192.361 132.127-32.126 23.23-61.355 47.921-86.998 72.065C98.462 597.524 49.272 650.69 26.652 689c-5.89 9.978-10.684 19.989-7.526 31.837 2.183 8.184 8.397 16.002 12.742 23.307 13.922 23.411 29.57 56.397 52.57 71.787l.925.618c1.6 5.23 3.49 10.046 5.982 14.927 1.77 3.465 3.615 6.779 5.207 10.344.568 1.277 1.859 4.154 2.114 5.695-.27 1.399-.987 3.317-1.373 4.66a79.439 79.439 0 0 0-2.682 13.959c-1.839 17.923 1.05 38.755 4.038 56.403 5.032 29.734 12.254 57.703 25.149 85.103 5.267 11.2 8.702 19.11 19.152 26.74 21.78 15.9 25.124 21.36 56.05 35.62-22.5-15-16.438-48.24-8.943-55.15l-.009.01Z" fill="url(#c)"/><path d="M616.315 1037.97s35.887-27.32 51.798-73.028c.003-.003 6.686 14.938 6.686 14.938 105.616-223.174 12.988-300.429-146.489-433.447l-.003-.002c-3.496-2.915-7.023-5.86-10.579-8.832 13.988 19.484 27.961 37.49 41.383 54.61 1.919 2.447 5.719 7.285 5.719 7.285 9.954 12.685 24.751 55.064 24.751 55.064 6.044 23.568 12.886 44.598 19.396 64.605 22.046 67.771 40.265 123.763 10.701 226.8-32.186 45.296-101.561 144.947-116.255 211.337 15.594-44.18 44.289-65.75 75.431-89.15 12.324-9.27 25.035-18.82 37.464-30.18h-.003Z" fill="#0047FF" stroke="#2B2A29" stroke-width=".755" stroke-miterlimit="22.926" stroke-linecap="round" stroke-linejoin="round"/><path d="M516.06 1039.59c83.964-110.813 147.047-225.788 1.671-501.991 2.185 7.115 4.342 14.098 6.456 20.96 29.76 96.479 51.798 167.908 45.654 217.166l9.717-1.66-12.047 16.598c-12.639 66.818-49.402 95.573-80.226 116.556-20.285 13.806-35.773 33.134-47.005 56.066l15.625-6.641-22.158 21.579c-28.153 72.437-19.734 173.167 10.906 251.837 7.707-69.56 28.315-119.42 52.442-160.55l10.61-36.52 8.355 6.6Z" fill="#fff" stroke="#2B2A29" stroke-width=".755" stroke-miterlimit="22.926"/><path d="M781.658 719.651c-35.665-71.345-205.443-161.225-263.927-182.052 17.736 11.831 34.59 22.353 50.572 32.334 84.046 52.482 135.986 103.295 175.005 237.328l5.015-16.598 3.343 28.216c8.232 78.686-39.519 175.096-195.506 318.681 26.392-12.89 50.918-25.99 73.527-39.33l16.709-20.42 1.671 4.15 1.672 4.15c20.534-13.11 43.312-29.12 60.155-42.75 59.95-48.519 91.609-98.972 101.929-156.431v-29.876l7.143 8.3c3.343-45.041-10.639-92.369-37.302-145.705l-.006.003Z" fill="red"/><path fill-rule="evenodd" clip-rule="evenodd" d="M806.761 115.495c27.56-1.87 48.063-19.092 121.048-5.562 9.1 1.689 12.213 3.218 19.966 5.883 9.379 3.224 14.095 4.078 18.029 11.598-23.775-.298-32.811-.579-53.246 4.54L900 136c24.249 16.11 97.36 33.342 127.96 33.453 26.49.099 61.13-6.967 79.88-17.382 17.95-9.966 41.84-33.732 43.25-57.535-10.18 2.63-14.78 7.494-24.12 10.423-28.5 8.919-66.73 1.387-95.08-2.347-46.171-6.076-65.647-17.975-126.443-17.793-17.239.057-40.753 4.095-56.747 8.002-10.207 2.49-38.5 12.169-41.934 22.677l-.005-.003Z" fill="#2B2A29"/><path fill-rule="evenodd" clip-rule="evenodd" d="M1127.83 117.907c-30.61 8.429-66.86 1.306-97.62-2.744-20.1-2.645-38.878-7.375-58.62-11.391a305.97 305.97 0 0 0-36.238-5.17c5.723 1.405 10.596 3.184 16.592 5.244 11.496 3.95 19.115 6.144 25.174 17.731 2.125 4.063 1.961 8.584-.46 12.483-2.418 3.899-6.408 6.078-11.019 6.022-8.865-.111-17.994-.395-26.837.21-.227.014-.457.031-.684.048 27.589 9.941 68.632 16.371 89.882 16.448 21.45.079 54.97-5.418 73.62-15.773 8.51-4.73 18.71-13.28 26.21-23.108Z" fill="#FFBC39"/><path fill-rule="evenodd" clip-rule="evenodd" d="M418.923 401.733c30.92-3.369 109.058-27.779 101.524 25.994 24.66-9.181 32.705-85.763-92.055-31.747-.255.111-4.131 1.859-4.31 1.961-4.77 2.71-2.489 1.164-5.162 3.792h.003Z" fill="#2B2A29"/><path fill-rule="evenodd" clip-rule="evenodd" d="M101.05 811.45c3.124 9.563 7.574 14.044 11.686 23.238 11.703 26.204-9.566 8.477 3.374 84.94 4.853 28.673 11.51 54.616 23.727 80.572 4.242 9.02 6.785 14.47 14.294 20.54 15.131-9.92 34.3-28.907 50.881-41.726 17.495-13.524 37.731-26.771 57.34-38.897 61.744-38.179 107.157-48.449 130.523-62.664-40.779 2.608-97.69 25.004-130.736 41.273-33.474 16.482-80.232 48.327-110.65 59.36-10.021-19.339-21.201-87.587-14.323-117.421 2.322-10.063 43.773-.545 70.556-.545 28.389 0 81.537-28.78 110.537-70.822l1.308-1.944c11.462-17.216 18.828-36.57 18.828-57.036 0-.775-.008-1.547-.022-2.319-4.376 15.898-11.3 30.748-20.299 44.102-5.207-44.3-18.125-81.671-53.032-100.766l3.343 11.921c-12.174 2.424-24.848 5.247-32.819 10.143 21.539 1.013 46.446-11.229 50.895 33.15-31.215.676-44.158-.039-74.65 12.677 36.122 1.856 43.06-5.628 80.678 3.638l12.114 46.434c-27.921 30.796-68.376 50.158-113.386 50.158-28.502 0-55.18-7.767-78.004-21.286-1.794-1.062-12.404-7.455-12.163-6.723v.003Zm346.795-308.625c-.576-20.613-8.269-36.51-19.64-45.994-9.997-8.338-29.348-17.776-46.88-16.882 20.094 8.394 42.212 26.567 54.122 42.058 6.002 7.81 7.583 13.312 12.398 20.818Zm-66.52 196.55c13.318-24.533 40.228-50.047 59.755-70.672 9.561-10.1 10.454-17.435 16.221-24.541-31.721 5.1-72.517 64.752-75.976 95.213ZM246.352 556.888l23.134-12.064 11.382 22.433c-11.941 7.5-25.894 23.894-30.597 36.905 28.56-21.451 53.697-54.145 99.955-73.294-3.07-2.276-1.317-1.728-6.064-3.47-18.63-6.834-54.931.993-72.343 6.45l-2.021-38.642c-7.5 9.376-20.699 50.055-23.446 61.679v.003ZM94.327 801.342c8.948-14.067 13.752-38.696 19.941-53.836 6.136-15.011 20.912-39.229 22.93-49.229-20.495.749-52.003 1.356-66.245 13.224l37.396.834c-2.358 9.461-18.077 38.866-23.755 47.246-29.89-44.876-28.679-55.495 18.44-108.301 47.62-53.37 45.915-44.331 85.127-84.247-53.639 16.28-122.277 90.295-146.239 130.869-10.823 18.335-6.055 18.389 5.188 37.294 14.052 23.636 28.562 53.662 47.215 66.143l.002.003Z" fill="#2B2A29" stroke="#2B2A29" stroke-width=".755" stroke-miterlimit="22.926"/></g><defs><linearGradient id="b" x1="522.3" y1="109.522" x2="1140.68" y2="1303.89" gradientUnits="userSpaceOnUse"><stop stop-color="#FFBC39"/><stop offset=".369" stop-color="#FFD278"/><stop offset="1" stop-color="#FEB323"/></linearGradient><linearGradient id="c" x1="50.762" y1="430.195" x2="403.443" y2="1130.59" gradientUnits="userSpaceOnUse"><stop stop-color="#FFBC39"/><stop offset=".341" stop-color="#FAD17F"/><stop offset="1" stop-color="#FFA800"/></linearGradient><clipPath id="a"><path fill="#fff" d="M0 0h1323.5v1418.84H0z"/></clipPath></defs></svg>